<svg width="15" height="11" viewBox="0 0 15 11" fill="none" xmlns="http://www.w3.org/2000/svg">
<path d="M2.0625 1.8125C1.82187 1.8125 1.625 2.00937 1.625 2.25V2.8543L6.3418 6.72617C6.90781 7.19102 7.71992 7.19102 8.28594 6.72617L13 2.8543V2.25C13 2.00937 12.8031 1.8125 12.5625 1.8125H2.0625ZM1.625 4.55234V9.25C1.625 9.49063 1.82187 9.6875 2.0625 9.6875H12.5625C12.8031 9.6875 13 9.49063 13 9.25V4.55234L9.11719 7.74062C8.06719 8.60195 6.55508 8.60195 5.50781 7.74062L1.625 4.55234ZM0.3125 2.25C0.3125 1.28477 1.09727 0.5 2.0625 0.5H12.5625C13.5277 0.5 14.3125 1.28477 14.3125 2.25V9.25C14.3125 10.2152 13.5277 11 12.5625 11H2.0625C1.09727 11 0.3125 10.2152 0.3125 9.25V2.25Z" fill="#4D44B5"/>
</svg>
