<svg width="24" height="25" viewBox="0 0 24 25" fill="none" xmlns="http://www.w3.org/2000/svg">
<path d="M20.5603 18.9394L16.7525 15.1317C17.5393 13.9459 17.9998 12.5262 17.9998 10.9999C17.9998 6.86443 14.6353 3.49993 10.4998 3.49993C6.36426 3.49993 2.99976 6.86443 2.99976 10.9999C2.99976 15.1354 6.36426 18.4999 10.4998 18.4999C12.026 18.4999 13.4458 18.0394 14.6315 17.2527L18.4393 21.0604C19.0243 21.6462 19.9753 21.6462 20.5603 21.0604C21.146 20.4747 21.146 19.5252 20.5603 18.9394ZM5.24976 10.9999C5.24976 8.10493 7.60476 5.74993 10.4998 5.74993C13.3948 5.74993 15.7498 8.10493 15.7498 10.9999C15.7498 13.8949 13.3948 16.2499 10.4998 16.2499C7.60476 16.2499 5.24976 13.8949 5.24976 10.9999Z" fill="#5D5FEF"/>
</svg>
