<svg width="16" height="16" viewBox="0 0 16 16" fill="none" xmlns="http://www.w3.org/2000/svg">
<path d="M15.5048 13.665C15.0226 13.2352 14.6005 12.7424 14.2498 12.2C13.8669 11.4513 13.6374 10.6336 13.5748 9.795V7.325C13.5781 6.0078 13.1003 4.73474 12.2311 3.74498C11.362 2.75523 10.1614 2.11693 8.85478 1.95V1.305C8.85478 1.12796 8.78445 0.958184 8.65927 0.833003C8.53409 0.707823 8.36431 0.637497 8.18728 0.637497C8.01025 0.637497 7.84047 0.707823 7.71529 0.833003C7.59011 0.958184 7.51978 1.12796 7.51978 1.305V1.96C6.22491 2.13896 5.03877 2.78113 4.18104 3.76755C3.32332 4.75398 2.85215 6.01782 2.85478 7.325V9.795C2.79216 10.6336 2.56267 11.4513 2.17978 12.2C1.83522 12.7412 1.41988 13.2339 0.94478 13.665C0.891446 13.7119 0.848701 13.7695 0.819389 13.8342C0.790077 13.8988 0.77487 13.969 0.77478 14.04V14.72C0.77478 14.8526 0.827459 14.9798 0.921227 15.0736C1.015 15.1673 1.14217 15.22 1.27478 15.22H15.1748C15.3074 15.22 15.4346 15.1673 15.5283 15.0736C15.6221 14.9798 15.6748 14.8526 15.6748 14.72V14.04C15.6747 13.969 15.6595 13.8988 15.6302 13.8342C15.6009 13.7695 15.5581 13.7119 15.5048 13.665ZM1.81478 14.22C2.27998 13.7706 2.68958 13.267 3.03478 12.72C3.51709 11.8157 3.7985 10.818 3.85978 9.795V7.325C3.83995 6.73902 3.93824 6.15504 4.1488 5.60783C4.35936 5.06063 4.67789 4.56139 5.0854 4.13985C5.49292 3.71831 5.9811 3.38308 6.52087 3.15413C7.06064 2.92519 7.64096 2.8072 8.22728 2.8072C8.8136 2.8072 9.39392 2.92519 9.93369 3.15413C10.4735 3.38308 10.9616 3.71831 11.3692 4.13985C11.7767 4.56139 12.0952 5.06063 12.3058 5.60783C12.5163 6.15504 12.6146 6.73902 12.5948 7.325V9.795C12.6561 10.818 12.9375 11.8157 13.4198 12.72C13.765 13.267 14.1746 13.7706 14.6398 14.22H1.81478Z" fill="#FFA412"/>
</svg>
