<svg width="15" height="15" viewBox="0 0 15 15" fill="none" xmlns="http://www.w3.org/2000/svg">
<path d="M4.82148 1.42266C4.61094 0.914069 4.05586 0.643366 3.52539 0.788287L1.11914 1.44454C0.643359 1.57579 0.3125 2.00782 0.3125 2.50001C0.3125 9.26485 5.79766 14.75 12.5625 14.75C13.0547 14.75 13.4867 14.4191 13.618 13.9434L14.2742 11.5371C14.4191 11.0066 14.1484 10.4516 13.6398 10.241L11.0148 9.14727C10.5691 8.96133 10.0523 9.08985 9.74883 9.46446L8.64414 10.8125C6.71914 9.90196 5.16055 8.34337 4.25 6.41837L5.59805 5.31641C5.97266 5.01016 6.10117 4.4961 5.91523 4.0504L4.82148 1.4254V1.42266Z" fill="#4D44B5"/>
</svg>
