<svg width="14" height="13" viewBox="0 0 14 13" fill="none" xmlns="http://www.w3.org/2000/svg">
<path d="M0.988281 6.57098C0.988281 4.92722 1.64126 3.35078 2.80358 2.18846C3.96589 1.02615 5.54233 0.373169 7.18609 0.373169C8.82985 0.373169 10.4063 1.02615 11.5686 2.18846C12.7309 3.35078 13.3839 4.92722 13.3839 6.57098C13.3839 8.21474 12.7309 9.79117 11.5686 10.9535C10.4063 12.1158 8.82985 12.7688 7.18609 12.7688C5.54233 12.7688 3.96589 12.1158 2.80358 10.9535C1.64126 9.79117 0.988281 8.21474 0.988281 6.57098ZM5.54706 3.93449C5.36306 4.03617 5.24927 4.23227 5.24927 4.44048V8.70147C5.24927 8.9121 5.36306 9.10578 5.54706 9.20747C5.73106 9.30915 5.95379 9.30673 6.13537 9.19536L9.62163 7.06487C9.79353 6.95834 9.90005 6.77192 9.90005 6.56856C9.90005 6.36519 9.79353 6.17877 9.62163 6.07225L6.13537 3.94175C5.95621 3.8328 5.73106 3.82796 5.54706 3.92965V3.93449Z" fill="#F97316"/>
</svg>
