<svg width="26" height="25" viewBox="0 0 26 25" fill="none" xmlns="http://www.w3.org/2000/svg">
<path d="M13.015 22.3206C18.5881 22.3206 23.1061 17.8026 23.1061 12.2295C23.1061 6.65626 18.5881 2.13831 13.015 2.13831C7.44178 2.13831 2.92383 6.65626 2.92383 12.2295C2.92383 13.8437 3.30287 15.3694 3.9768 16.7225C4.1559 17.0821 4.2155 17.4931 4.11168 17.8811L3.51064 20.1275C3.24972 21.1026 4.14184 21.9947 5.11699 21.7338L7.36332 21.1328C7.75136 21.0289 8.16235 21.0886 8.52192 21.2676C9.87498 21.9416 11.4007 22.3206 13.015 22.3206Z" fill="white"/>
<path d="M16.043 12.2295C16.043 12.7868 16.4947 13.2386 17.0521 13.2386C17.6094 13.2386 18.0612 12.7868 18.0612 12.2295C18.0612 11.6721 17.6094 11.2203 17.0521 11.2203C16.4947 11.2203 16.043 11.6721 16.043 12.2295Z" fill="#E7003E"/>
<path d="M12.0059 12.2296C12.0059 12.7869 12.4576 13.2387 13.015 13.2387C13.5723 13.2387 14.0241 12.7869 14.0241 12.2296C14.0241 11.6722 13.5723 11.2205 13.015 11.2205C12.4576 11.2205 12.0059 11.6722 12.0059 12.2296Z" fill="#E7003E"/>
<path d="M7.9707 12.2295C7.9707 12.7868 8.4225 13.2386 8.97982 13.2386C9.53713 13.2386 9.98893 12.7868 9.98893 12.2295C9.98893 11.6721 9.53713 11.2203 8.97982 11.2203C8.4225 11.2203 7.9707 11.6721 7.9707 12.2295Z" fill="#E7003E"/>
</svg>
