<svg width="88" height="99" viewBox="0 0 88 99" fill="none" xmlns="http://www.w3.org/2000/svg">
<rect x="0.166016" y="0.769958" width="87.4141" height="97.2663" fill="#151515"/>
<path d="M22.2012 46.7424V48.9777H16.4448V52.5186H20.856V54.7143H16.4448V60.5497H13.6755V46.7424H22.2012ZM30.574 60.6882C29.2817 60.6882 28.0948 60.3849 27.0134 59.7783C25.932 59.1717 25.0748 58.3342 24.4418 57.2661C23.8088 56.1847 23.4923 54.9648 23.4923 53.6065C23.4923 52.2614 23.8088 51.0548 24.4418 49.9866C25.0748 48.9052 25.932 48.0612 27.0134 47.4546C28.0948 46.8479 29.2817 46.5446 30.574 46.5446C31.8796 46.5446 33.0665 46.8479 34.1346 47.4546C35.216 48.0612 36.0666 48.9052 36.6864 49.9866C37.3194 51.0548 37.6359 52.2614 37.6359 53.6065C37.6359 54.9648 37.3194 56.1847 36.6864 57.2661C36.0666 58.3342 35.216 59.1717 34.1346 59.7783C33.0533 60.3849 31.8664 60.6882 30.574 60.6882ZM30.574 58.2156C31.4048 58.2156 32.1367 58.0309 32.7697 57.6617C33.4027 57.2792 33.8973 56.7386 34.2533 56.0396C34.6094 55.3407 34.7874 54.5297 34.7874 53.6065C34.7874 52.6834 34.6094 51.879 34.2533 51.1932C33.8973 50.4943 33.4027 49.9602 32.7697 49.5909C32.1367 49.2217 31.4048 49.0371 30.574 49.0371C29.7432 49.0371 29.0047 49.2217 28.3585 49.5909C27.7255 49.9602 27.231 50.4943 26.8749 51.1932C26.5189 51.879 26.3408 52.6834 26.3408 53.6065C26.3408 54.5297 26.5189 55.3407 26.8749 56.0396C27.231 56.7386 27.7255 57.2792 28.3585 57.6617C29.0047 58.0309 29.7432 58.2156 30.574 58.2156ZM46.8175 60.5497L43.7712 55.1693H42.4656V60.5497H39.6963V46.7424H44.8789C45.9471 46.7424 46.8571 46.9337 47.6088 47.3161C48.3604 47.6854 48.9209 48.1931 49.2902 48.8393C49.6726 49.4723 49.8638 50.1844 49.8638 50.9756C49.8638 51.8856 49.6001 52.7098 49.0726 53.4483C48.5451 54.1736 47.7604 54.6747 46.7186 54.9517L50.0221 60.5497H46.8175ZM42.4656 53.0922H44.78C45.5317 53.0922 46.0922 52.9142 46.4614 52.5581C46.8307 52.1889 47.0153 51.6812 47.0153 51.035C47.0153 50.402 46.8307 49.914 46.4614 49.5712C46.0922 49.2151 45.5317 49.0371 44.78 49.0371H42.4656V53.0922ZM55.138 48.9777V52.4394H59.7866V54.6352H55.138V58.2947H60.38V60.5497H52.3686V46.7227H60.38V48.9777H55.138ZM71.1653 60.5497L68.1783 55.9012L65.4683 60.5497H62.3428L66.6947 53.5868L62.2835 46.7424H65.4683L68.4552 51.3713L71.1455 46.7424H74.2709L69.9388 53.6857L74.35 60.5497H71.1653Z" fill="white"/>
<path d="M20.0417 73.8594V75.4653H17.3984V83.7792H15.4087V75.4653H12.7653V73.8594H20.0417ZM26.6097 83.7792L24.4211 79.9136H23.4831V83.7792H21.4935V73.8594H25.2169C25.9844 73.8594 26.6381 73.9967 27.1782 74.2715C27.7182 74.5368 28.1209 74.9016 28.3862 75.3658C28.6609 75.8206 28.7983 76.3322 28.7983 76.9007C28.7983 77.5544 28.6088 78.1466 28.2298 78.6772C27.8508 79.1983 27.2871 79.5583 26.5386 79.7572L28.912 83.7792H26.6097ZM23.4831 78.4213H25.1459C25.6859 78.4213 26.0886 78.2934 26.3539 78.0376C26.6192 77.7723 26.7518 77.4076 26.7518 76.9433C26.7518 76.4885 26.6192 76.138 26.3539 75.8917C26.0886 75.6358 25.6859 75.5079 25.1459 75.5079H23.4831V78.4213ZM36.6805 81.889H32.7296L32.0759 83.7792H29.9868L33.5539 73.8452H35.8704L39.4376 83.7792H37.3342L36.6805 81.889ZM36.1404 80.2973L34.7051 76.1475L33.2697 80.2973H36.1404ZM44.2386 73.8594C45.2808 73.8594 46.1951 74.0631 46.9815 74.4705C47.7773 74.8779 48.3884 75.4606 48.8148 76.2185C49.2506 76.967 49.4685 77.8387 49.4685 78.8335C49.4685 79.8283 49.2506 80.7 48.8148 81.4484C48.3884 82.1875 47.7773 82.7607 46.9815 83.1681C46.1951 83.5755 45.2808 83.7792 44.2386 83.7792H40.7709V73.8594H44.2386ZM44.1675 82.088C45.2097 82.088 46.0151 81.8037 46.5835 81.2353C47.152 80.6668 47.4362 79.8662 47.4362 78.8335C47.4362 77.8008 47.152 76.9954 46.5835 76.4175C46.0151 75.8301 45.2097 75.5364 44.1675 75.5364H42.7606V82.088H44.1675ZM52.9475 73.8594V83.7792H50.9579V73.8594H52.9475ZM63.3977 83.7792H61.4081L56.9029 76.9717V83.7792H54.9133V73.8452H56.9029L61.4081 80.6668V73.8452H63.3977V83.7792ZM72.2708 76.8438C72.0434 76.427 71.7308 76.1096 71.3329 75.8917C70.9349 75.6737 70.4707 75.5648 69.9401 75.5648C69.3527 75.5648 68.8316 75.6974 68.3768 75.9627C67.922 76.228 67.5667 76.607 67.3109 77.0996C67.0551 77.5923 66.9272 78.1608 66.9272 78.8051C66.9272 79.4683 67.0551 80.0462 67.3109 80.5389C67.5762 81.0316 67.941 81.4105 68.4052 81.6758C68.8695 81.9411 69.4095 82.0738 70.0254 82.0738C70.7833 82.0738 71.4039 81.8748 71.8871 81.4769C72.3703 81.0695 72.6877 80.5057 72.8393 79.7857H69.4285V78.265H74.8005V79.9988C74.6679 80.6905 74.3836 81.33 73.9478 81.9174C73.512 82.5049 72.9483 82.9786 72.2566 83.3386C71.5745 83.6892 70.807 83.8644 69.9543 83.8644C68.9974 83.8644 68.1305 83.6513 67.3536 83.2249C66.5861 82.7891 65.9798 82.1875 65.5345 81.42C65.0986 80.6526 64.8807 79.7809 64.8807 78.8051C64.8807 77.8292 65.0986 76.9575 65.5345 76.1901C65.9798 75.4132 66.5861 74.8116 67.3536 74.3852C68.1305 73.9494 68.9927 73.7315 69.9401 73.7315C71.0581 73.7315 72.0292 74.0062 72.8535 74.5557C73.6778 75.0958 74.2463 75.8585 74.5589 76.8438H72.2708Z" fill="#EE0000"/>
<rect x="12.3105" y="10.027" width="9.497" height="26.0512" fill="#479E1F"/>
<rect x="25.7168" y="21.1993" width="9.497" height="14.8789" fill="#EE0000"/>
<rect x="39.125" y="17.1075" width="9.497" height="18.9707" fill="#479E1F"/>
<rect x="65.9375" y="17.1075" width="9.497" height="18.9707" fill="#479E1F"/>
<rect x="52.5312" y="29.0132" width="9.497" height="7.06502" fill="#EE0000"/>
</svg>
