<svg width="4" height="13" viewBox="0 0 4 13" fill="none" xmlns="http://www.w3.org/2000/svg">
<path d="M1.57812 9.59375C1.17201 9.59375 0.782533 9.75508 0.495368 10.0422C0.208203 10.3294 0.046875 10.7189 0.046875 11.125C0.046875 11.5311 0.208203 11.9206 0.495368 12.2078C0.782533 12.4949 1.17201 12.6562 1.57812 12.6562C1.98424 12.6562 2.37372 12.4949 2.66088 12.2078C2.94805 11.9206 3.10938 11.5311 3.10938 11.125C3.10938 10.7189 2.94805 10.3294 2.66088 10.0422C2.37372 9.75508 1.98424 9.59375 1.57812 9.59375ZM1.57812 5.21875C1.17201 5.21875 0.782533 5.38008 0.495368 5.66724C0.208203 5.95441 0.046875 6.34389 0.046875 6.75C0.046875 7.15611 0.208203 7.54559 0.495368 7.83276C0.782533 8.11992 1.17201 8.28125 1.57812 8.28125C1.98424 8.28125 2.37372 8.11992 2.66088 7.83276C2.94805 7.54559 3.10938 7.15611 3.10938 6.75C3.10938 6.34389 2.94805 5.95441 2.66088 5.66724C2.37372 5.38008 1.98424 5.21875 1.57812 5.21875ZM3.10938 2.375C3.10938 1.96889 2.94805 1.57941 2.66088 1.29224C2.37372 1.00508 1.98424 0.84375 1.57812 0.84375C1.17201 0.84375 0.782533 1.00508 0.495368 1.29224C0.208203 1.57941 0.046875 1.96889 0.046875 2.375C0.046875 2.78111 0.208203 3.17059 0.495368 3.45776C0.782533 3.74492 1.17201 3.90625 1.57812 3.90625C1.98424 3.90625 2.37372 3.74492 2.66088 3.45776C2.94805 3.17059 3.10938 2.78111 3.10938 2.375Z" fill="#6B7280"/>
</svg>
