<svg width="15" height="15" viewBox="0 0 15 15" fill="none" xmlns="http://www.w3.org/2000/svg">
<g clip-path="url(#clip0_1082_124)">
<path d="M3.72332 11.4496C4.07606 11.1926 4.5327 11.127 4.94285 11.2746C5.66746 11.5371 6.47957 11.6875 7.34363 11.6875C10.7534 11.6875 13.0311 9.48633 13.0311 7.3125C13.0311 5.13867 10.7534 2.9375 7.34363 2.9375C3.93387 2.9375 1.65613 5.13867 1.65613 7.3125C1.65613 8.1875 1.9952 9.02969 2.6323 9.75156C2.86746 10.0168 2.98231 10.3668 2.95496 10.7223C2.91668 11.2172 2.7991 11.6711 2.64598 12.073C3.11082 11.857 3.49637 11.6164 3.72332 11.4523V11.4496ZM0.923321 12.5598C0.972539 12.4859 1.01902 12.4121 1.06277 12.3383C1.33621 11.8844 1.59598 11.2883 1.64793 10.6184C0.827618 9.68594 0.343633 8.5457 0.343633 7.3125C0.343633 4.1707 3.47723 1.625 7.34363 1.625C11.21 1.625 14.3436 4.1707 14.3436 7.3125C14.3436 10.4543 11.21 13 7.34363 13C6.32918 13 5.36668 12.825 4.49715 12.5105C4.17176 12.7484 3.64129 13.0738 3.01238 13.3473C2.59949 13.5277 2.12918 13.6918 1.64246 13.7875C1.62059 13.793 1.59871 13.7957 1.57684 13.8012C1.45652 13.823 1.33895 13.8422 1.2159 13.8531C1.21043 13.8531 1.20223 13.8559 1.19676 13.8559C1.05731 13.8695 0.917852 13.8777 0.778399 13.8777C0.600664 13.8777 0.442071 13.7711 0.373711 13.607C0.305352 13.443 0.343633 13.257 0.46668 13.1312C0.578789 13.0164 0.679961 12.8934 0.775664 12.7621C0.822149 12.6992 0.865899 12.6363 0.906914 12.5734C0.909649 12.568 0.912383 12.5652 0.915118 12.5598H0.923321Z" fill="#6B7280"/>
</g>
<defs>
<clipPath id="clip0_1082_124">
<path d="M0.34375 0.75H14.3438V14.75H0.34375V0.75Z" fill="white"/>
</clipPath>
</defs>
</svg>
