<svg width="16" height="15" viewBox="0 0 16 15" fill="none" xmlns="http://www.w3.org/2000/svg">
<g clip-path="url(#clip0_1082_119)">
<g clip-path="url(#clip1_1082_119)">
<path d="M7.87505 2.9375C6.09224 2.9375 4.62661 3.74688 3.50278 4.78867C2.45005 5.76758 1.72271 6.92969 1.35083 7.75C1.72271 8.57031 2.45005 9.73242 3.50005 10.7113C4.62661 11.7531 6.09224 12.5625 7.87505 12.5625C9.65786 12.5625 11.1235 11.7531 12.2473 10.7113C13.3 9.73242 14.0274 8.57031 14.3993 7.75C14.0274 6.92969 13.3 5.76758 12.25 4.78867C11.1235 3.74688 9.65786 2.9375 7.87505 2.9375ZM2.60864 3.82891C3.89653 2.63125 5.66567 1.625 7.87505 1.625C10.0844 1.625 11.8536 2.63125 13.1415 3.82891C14.4211 5.01836 15.277 6.4375 15.6844 7.41367C15.7747 7.62969 15.7747 7.87031 15.6844 8.08633C15.277 9.0625 14.4211 10.4844 13.1415 11.6711C11.8536 12.8687 10.0844 13.875 7.87505 13.875C5.66567 13.875 3.89653 12.8687 2.60864 11.6711C1.32896 10.4844 0.473096 9.0625 0.0684082 8.08633C-0.0218262 7.87031 -0.0218262 7.62969 0.0684082 7.41367C0.473096 6.4375 1.32896 5.01562 2.60864 3.82891ZM7.87505 9.9375C9.08364 9.9375 10.0625 8.95859 10.0625 7.75C10.0625 6.54141 9.08364 5.5625 7.87505 5.5625C7.85591 5.5625 7.8395 5.5625 7.82036 5.5625C7.85591 5.70195 7.87505 5.84961 7.87505 6C7.87505 6.96523 7.09028 7.75 6.12505 7.75C5.97466 7.75 5.827 7.73086 5.68755 7.69531C5.68755 7.71445 5.68755 7.73086 5.68755 7.75C5.68755 8.95859 6.66646 9.9375 7.87505 9.9375ZM7.87505 4.25C8.80331 4.25 9.69355 4.61875 10.3499 5.27513C11.0063 5.9315 11.375 6.82174 11.375 7.75C11.375 8.67826 11.0063 9.5685 10.3499 10.2249C9.69355 10.8813 8.80331 11.25 7.87505 11.25C6.94679 11.25 6.05655 10.8813 5.40018 10.2249C4.7438 9.5685 4.37505 8.67826 4.37505 7.75C4.37505 6.82174 4.7438 5.9315 5.40018 5.27513C6.05655 4.61875 6.94679 4.25 7.87505 4.25Z" fill="#6B7280"/>
</g>
</g>
<defs>
<clipPath id="clip0_1082_119">
<rect width="15.75" height="14" fill="white" transform="translate(0 0.75)"/>
</clipPath>
<clipPath id="clip1_1082_119">
<path d="M0 0.75H15.75V14.75H0V0.75Z" fill="white"/>
</clipPath>
</defs>
</svg>
