<svg width="216" height="108" viewBox="0 0 216 108" fill="none" xmlns="http://www.w3.org/2000/svg">
<path d="M215.507 107.754C215.507 86.8533 209.429 66.4041 198.013 48.897C186.597 31.3899 170.336 17.5807 151.211 9.15167L140.52 33.4071C154.941 39.7626 167.202 50.1749 175.81 63.3753C184.418 76.5758 189.001 91.9947 189.001 107.754H215.507Z" fill="#12AD2B"/>
<path d="M143.949 6.2612C120.739 -2.01645 95.3925 -2.08849 72.1354 6.0571L80.8972 31.0737C98.4333 24.9319 117.545 24.9862 135.046 31.2276L143.949 6.2612Z" fill="#FFFF00"/>
<path d="M62.714 9.86523C44.0792 18.4393 28.2789 32.1542 17.1699 49.3983C6.06086 66.6424 0.104708 86.6992 0.00137329 107.212L26.5077 107.345C26.5856 91.8786 31.0766 76.7557 39.4529 63.7535C47.8291 50.7513 59.7427 40.4101 73.7935 33.9453L62.714 9.86523Z" fill="#FE0000"/>
<path d="M107.754 0.5C121.839 0.500029 135.785 3.27411 148.798 8.66406C161.81 14.0541 173.634 21.9546 183.594 31.9141C193.553 41.8734 201.453 53.6974 206.843 66.71C212.169 79.5686 214.94 93.3392 215.005 107.254H189.498C189.433 96.6888 187.323 86.2347 183.278 76.4707C179.17 66.5528 173.148 57.5411 165.558 49.9502C157.967 42.3593 148.955 36.3377 139.037 32.2295C129.119 28.1213 118.489 26.0069 107.754 26.0068C97.0188 26.0068 86.3887 28.1214 76.4707 32.2295C66.5527 36.3377 57.5411 42.3593 49.9502 49.9502C42.3593 57.5411 36.3377 66.5527 32.2295 76.4707C28.1851 86.2347 26.0744 96.6888 26.0098 107.254H0.50293C0.567765 93.3393 3.33795 79.5685 8.66406 66.71C14.0541 53.6973 21.9546 41.8735 31.9141 31.9141C41.8734 21.9547 53.6965 14.0541 66.709 8.66406C79.7216 3.27406 93.6692 0.500001 107.754 0.5Z" stroke="black"/>
<mask id="path-5-outside-1_263_256" maskUnits="userSpaceOnUse" x="29.9932" y="99.4218" width="11.2294" height="8.31841" fill="black">
<rect fill="white" x="29.9932" y="99.4218" width="11.2294" height="8.31841"/>
<path d="M33.5848 101.875C33.1595 101.938 32.8341 102.153 32.6088 102.519C32.3834 102.885 32.2784 103.33 32.2937 103.852C32.3049 104.234 32.3764 104.566 32.5084 104.849C32.6402 105.129 32.8166 105.346 33.0375 105.5C33.2583 105.651 33.5063 105.722 33.7815 105.714C34.0117 105.707 34.2081 105.647 34.3705 105.532C34.5301 105.415 34.6621 105.268 34.7665 105.091C34.8681 104.913 34.9512 104.728 35.0159 104.535C35.0777 104.342 35.1273 104.165 35.1647 104.004L35.3749 103.121C35.4273 102.895 35.5014 102.642 35.5973 102.364C35.693 102.083 35.8271 101.814 35.9994 101.556C36.1688 101.295 36.3901 101.078 36.6632 100.904C36.9364 100.73 37.2751 100.637 37.6794 100.626C38.1456 100.612 38.5703 100.722 38.9537 100.955C39.3371 101.185 39.6465 101.53 39.8819 101.99C40.1173 102.447 40.2447 103.007 40.2641 103.669C40.2822 104.287 40.1982 104.825 40.012 105.283C39.8258 105.738 39.5582 106.1 39.2092 106.369C38.86 106.635 38.4501 106.791 37.9793 106.839L37.9478 105.761C38.2727 105.723 38.539 105.606 38.7468 105.408C38.9518 105.208 39.1019 104.96 39.1971 104.662C39.2895 104.361 39.3307 104.04 39.3207 103.697C39.309 103.298 39.2339 102.942 39.0955 102.629C38.9542 102.315 38.7643 102.069 38.5258 101.891C38.2846 101.712 38.0067 101.628 37.6922 101.637C37.4058 101.645 37.1751 101.732 37 101.897C36.825 102.063 36.6852 102.278 36.5805 102.542C36.4758 102.806 36.3858 103.092 36.3104 103.397L36.0382 104.468C35.8642 105.147 35.6032 105.689 35.2553 106.092C34.9074 106.496 34.4429 106.706 33.8616 106.723C33.3786 106.737 32.9536 106.619 32.5866 106.369C32.2166 106.115 31.9255 105.77 31.7131 105.332C31.4979 104.891 31.3822 104.396 31.3661 103.845C31.3498 103.29 31.435 102.792 31.6217 102.354C31.8056 101.916 32.0652 101.566 32.4004 101.303C32.7354 101.037 33.1204 100.891 33.5552 100.864L33.5848 101.875Z"/>
</mask>
<path d="M33.5848 101.875C33.1595 101.938 32.8341 102.153 32.6088 102.519C32.3834 102.885 32.2784 103.33 32.2937 103.852C32.3049 104.234 32.3764 104.566 32.5084 104.849C32.6402 105.129 32.8166 105.346 33.0375 105.5C33.2583 105.651 33.5063 105.722 33.7815 105.714C34.0117 105.707 34.2081 105.647 34.3705 105.532C34.5301 105.415 34.6621 105.268 34.7665 105.091C34.8681 104.913 34.9512 104.728 35.0159 104.535C35.0777 104.342 35.1273 104.165 35.1647 104.004L35.3749 103.121C35.4273 102.895 35.5014 102.642 35.5973 102.364C35.693 102.083 35.8271 101.814 35.9994 101.556C36.1688 101.295 36.3901 101.078 36.6632 100.904C36.9364 100.73 37.2751 100.637 37.6794 100.626C38.1456 100.612 38.5703 100.722 38.9537 100.955C39.3371 101.185 39.6465 101.53 39.8819 101.99C40.1173 102.447 40.2447 103.007 40.2641 103.669C40.2822 104.287 40.1982 104.825 40.012 105.283C39.8258 105.738 39.5582 106.1 39.2092 106.369C38.86 106.635 38.4501 106.791 37.9793 106.839L37.9478 105.761C38.2727 105.723 38.539 105.606 38.7468 105.408C38.9518 105.208 39.1019 104.96 39.1971 104.662C39.2895 104.361 39.3307 104.04 39.3207 103.697C39.309 103.298 39.2339 102.942 39.0955 102.629C38.9542 102.315 38.7643 102.069 38.5258 101.891C38.2846 101.712 38.0067 101.628 37.6922 101.637C37.4058 101.645 37.1751 101.732 37 101.897C36.825 102.063 36.6852 102.278 36.5805 102.542C36.4758 102.806 36.3858 103.092 36.3104 103.397L36.0382 104.468C35.8642 105.147 35.6032 105.689 35.2553 106.092C34.9074 106.496 34.4429 106.706 33.8616 106.723C33.3786 106.737 32.9536 106.619 32.5866 106.369C32.2166 106.115 31.9255 105.77 31.7131 105.332C31.4979 104.891 31.3822 104.396 31.3661 103.845C31.3498 103.29 31.435 102.792 31.6217 102.354C31.8056 101.916 32.0652 101.566 32.4004 101.303C32.7354 101.037 33.1204 100.891 33.5552 100.864L33.5848 101.875Z" fill="black"/>
<path d="M33.5848 101.875L33.6288 102.172L33.8925 102.133L33.8847 101.866L33.5848 101.875ZM32.6088 102.519L32.8643 102.676L32.6088 102.519ZM32.5084 104.849L32.2365 104.976L32.237 104.977L32.5084 104.849ZM33.0375 105.5L32.8661 105.746L32.8682 105.747L33.0375 105.5ZM34.3705 105.532L34.5433 105.778L34.548 105.774L34.3705 105.532ZM34.7665 105.091L35.025 105.243L35.0268 105.24L34.7665 105.091ZM35.0159 104.535L35.3004 104.631L35.3015 104.627L35.0159 104.535ZM35.1647 104.004L34.8729 103.935L34.8725 103.936L35.1647 104.004ZM35.3749 103.121L35.6668 103.191L35.6672 103.189L35.3749 103.121ZM35.5973 102.364L35.8809 102.462L35.8812 102.461L35.5973 102.364ZM35.9994 101.556L36.2489 101.722L36.2509 101.719L35.9994 101.556ZM36.6632 100.904L36.5022 100.651L36.5022 100.651L36.6632 100.904ZM38.9537 100.955L38.7978 101.211L38.7992 101.212L38.9537 100.955ZM39.8819 101.99L39.6149 102.127L39.6153 102.128L39.8819 101.99ZM40.012 105.283L40.2897 105.396L40.29 105.396L40.012 105.283ZM39.2092 106.369L39.391 106.607L39.3922 106.606L39.2092 106.369ZM37.9793 106.839L37.6795 106.848L37.6889 107.17L38.0095 107.137L37.9793 106.839ZM37.9478 105.761L37.9133 105.463L37.6399 105.494L37.6479 105.769L37.9478 105.761ZM38.7468 105.408L38.9534 105.626L38.9563 105.623L38.7468 105.408ZM39.1971 104.662L39.4829 104.753L39.4839 104.75L39.1971 104.662ZM39.0955 102.629L39.3699 102.507L39.369 102.505L39.0955 102.629ZM38.5258 101.891L38.7056 101.651L38.7042 101.649L38.5258 101.891ZM37 101.897L36.794 101.679L37 101.897ZM36.5805 102.542L36.8594 102.652L36.5805 102.542ZM36.3104 103.397L36.6012 103.471L36.6017 103.469L36.3104 103.397ZM36.0382 104.468L36.3289 104.542L36.329 104.541L36.0382 104.468ZM35.2553 106.092L35.4826 106.288L35.4826 106.288L35.2553 106.092ZM32.5866 106.369L32.4171 106.616L32.4174 106.616L32.5866 106.369ZM31.7131 105.332L31.983 105.201L31.9827 105.2L31.7131 105.332ZM31.6217 102.354L31.8977 102.472L31.8984 102.47L31.6217 102.354ZM32.4004 101.303L32.5854 101.539L32.5867 101.538L32.4004 101.303ZM33.5552 100.864L33.8551 100.855L33.846 100.546L33.5368 100.565L33.5552 100.864ZM33.5848 101.875L33.5408 101.578C33.0278 101.654 32.625 101.92 32.3533 102.362L32.6088 102.519L32.8643 102.676C33.0432 102.385 33.2912 102.222 33.6288 102.172L33.5848 101.875ZM32.6088 102.519L32.3533 102.362C32.0912 102.788 31.9772 103.293 31.9938 103.861L32.2937 103.852L32.5936 103.843C32.5796 103.367 32.6756 102.983 32.8643 102.676L32.6088 102.519ZM32.2937 103.852L31.9938 103.861C32.0059 104.275 32.0839 104.649 32.2365 104.976L32.5084 104.849L32.7802 104.722C32.669 104.484 32.6038 104.193 32.5936 103.843L32.2937 103.852ZM32.5084 104.849L32.237 104.977C32.3878 105.297 32.596 105.558 32.8661 105.746L33.0375 105.5L33.2089 105.253C33.0372 105.134 32.8926 104.961 32.7798 104.721L32.5084 104.849ZM33.0375 105.5L32.8682 105.747C33.143 105.935 33.4537 106.024 33.7903 106.014L33.7815 105.714L33.7727 105.414C33.5589 105.42 33.3736 105.366 33.2068 105.252L33.0375 105.5ZM33.7815 105.714L33.7903 106.014C34.0697 106.006 34.3254 105.931 34.5432 105.778L34.3705 105.532L34.1979 105.287C34.0908 105.362 33.9538 105.409 33.7727 105.414L33.7815 105.714ZM34.3705 105.532L34.548 105.774C34.7417 105.632 34.9008 105.454 35.025 105.243L34.7665 105.091L34.508 104.938C34.4234 105.082 34.3185 105.198 34.1931 105.29L34.3705 105.532ZM34.7665 105.091L35.0268 105.24C35.1382 105.046 35.2294 104.842 35.3003 104.631L35.0159 104.535L34.7314 104.44C34.6731 104.614 34.5981 104.781 34.5063 104.941L34.7665 105.091ZM35.0159 104.535L35.3015 104.627C35.3653 104.428 35.4173 104.243 35.4569 104.072L35.1647 104.004L34.8725 103.936C34.8372 104.088 34.79 104.257 34.7302 104.444L35.0159 104.535ZM35.1647 104.004L35.4565 104.074L35.6668 103.191L35.3749 103.121L35.0831 103.052L34.8729 103.935L35.1647 104.004ZM35.3749 103.121L35.6672 103.189C35.7167 102.975 35.7876 102.733 35.8809 102.462L35.5973 102.364L35.3136 102.267C35.2152 102.552 35.1379 102.815 35.0827 103.053L35.3749 103.121ZM35.5973 102.364L35.8812 102.461C35.9682 102.206 36.0904 101.96 36.2488 101.722L35.9994 101.556L35.7499 101.389C35.5638 101.668 35.4178 101.961 35.3133 102.267L35.5973 102.364ZM35.9994 101.556L36.2509 101.719C36.396 101.496 36.5858 101.309 36.8243 101.157L36.6632 100.904L36.5022 100.651C36.1943 100.847 35.9416 101.094 35.7478 101.392L35.9994 101.556ZM36.6632 100.904L36.8243 101.157C37.0417 101.019 37.3246 100.936 37.6882 100.925L37.6794 100.626L37.6707 100.326C37.2256 100.339 36.831 100.442 36.5022 100.651L36.6632 100.904ZM37.6794 100.626L37.6882 100.925C38.0988 100.913 38.4659 101.009 38.7978 101.211L38.9537 100.955L39.1097 100.699C38.6747 100.434 38.1924 100.31 37.6707 100.326L37.6794 100.626ZM38.9537 100.955L38.7992 101.212C39.1275 101.409 39.401 101.709 39.6149 102.127L39.8819 101.99L40.1489 101.853C39.892 101.352 39.5466 100.961 39.1083 100.698L38.9537 100.955ZM39.8819 101.99L39.6153 102.128C39.8251 102.535 39.9458 103.048 39.9642 103.678L40.2641 103.669L40.564 103.661C40.5436 102.966 40.4096 102.359 40.1486 101.853L39.8819 101.99ZM40.2641 103.669L39.9642 103.678C39.9814 104.264 39.9012 104.759 39.7341 105.17L40.012 105.283L40.29 105.396C40.4952 104.891 40.583 104.31 40.564 103.661L40.2641 103.669ZM40.012 105.283L39.7344 105.169C39.5658 105.581 39.3285 105.898 39.0261 106.131L39.2092 106.369L39.3922 106.606C39.7879 106.302 40.0858 105.895 40.2897 105.396L40.012 105.283ZM39.2092 106.369L39.0274 106.13C38.7257 106.36 38.3693 106.498 37.9492 106.54L37.9793 106.839L38.0095 107.137C38.5309 107.085 38.9943 106.909 39.3909 106.607L39.2092 106.369ZM37.9793 106.839L38.2792 106.83L38.2476 105.752L37.9478 105.761L37.6479 105.769L37.6795 106.848L37.9793 106.839ZM37.9478 105.761L37.9823 106.059C38.3622 106.015 38.6919 105.874 38.9533 105.626L38.7468 105.408L38.5404 105.191C38.3862 105.337 38.1832 105.431 37.9133 105.463L37.9478 105.761ZM38.7468 105.408L38.9563 105.623C39.1996 105.386 39.3741 105.093 39.4829 104.753L39.1971 104.662L38.9114 104.57C38.8297 104.826 38.704 105.031 38.5374 105.194L38.7468 105.408ZM39.1971 104.662L39.4839 104.75C39.5867 104.415 39.6314 104.061 39.6205 103.688L39.3207 103.697L39.0208 103.706C39.0299 104.018 38.9923 104.307 38.9104 104.574L39.1971 104.662ZM39.3207 103.697L39.6205 103.688C39.6079 103.257 39.5264 102.862 39.3699 102.507L39.0955 102.629L38.821 102.75C38.9415 103.023 39.0101 103.34 39.0208 103.706L39.3207 103.697ZM39.0955 102.629L39.369 102.505C39.2101 102.153 38.9906 101.864 38.7056 101.651L38.5258 101.891L38.3461 102.131C38.538 102.275 38.6983 102.477 38.822 102.752L39.0955 102.629ZM38.5258 101.891L38.7042 101.649C38.4061 101.429 38.0616 101.326 37.6834 101.337L37.6922 101.637L37.701 101.937C37.9518 101.929 38.163 101.995 38.3475 102.132L38.5258 101.891ZM37.6922 101.637L37.6834 101.337C37.3382 101.347 37.0324 101.454 36.794 101.679L37 101.897L37.206 102.116C37.3177 102.01 37.4733 101.943 37.701 101.937L37.6922 101.637ZM37 101.897L36.794 101.679C36.5818 101.88 36.4195 102.134 36.3015 102.432L36.5805 102.542L36.8594 102.652C36.9508 102.421 37.0682 102.246 37.206 102.116L37 101.897ZM36.5805 102.542L36.3015 102.432C36.1914 102.71 36.0974 103.008 36.0191 103.325L36.3104 103.397L36.6017 103.469C36.6742 103.175 36.7602 102.903 36.8594 102.652L36.5805 102.542ZM36.3104 103.397L36.0197 103.323L35.7475 104.394L36.0382 104.468L36.329 104.541L36.6012 103.471L36.3104 103.397ZM36.0382 104.468L35.7476 104.393C35.5816 105.041 35.3378 105.537 35.0281 105.896L35.2553 106.092L35.4826 106.288C35.8687 105.84 36.1468 105.253 36.3289 104.542L36.0382 104.468ZM35.2553 106.092L35.0281 105.896C34.7405 106.23 34.3585 106.409 33.8528 106.423L33.8616 106.723L33.8704 107.023C34.5272 107.004 35.0743 106.762 35.4826 106.288L35.2553 106.092ZM33.8616 106.723L33.8528 106.423C33.4274 106.436 33.0659 106.333 32.7557 106.121L32.5866 106.369L32.4174 106.616C32.8414 106.906 33.3299 107.039 33.8704 107.023L33.8616 106.723ZM32.5866 106.369L32.7561 106.121C32.4328 105.9 32.1746 105.596 31.983 105.201L31.7131 105.332L31.4432 105.463C31.6763 105.943 32.0004 106.331 32.4171 106.616L32.5866 106.369ZM31.7131 105.332L31.9827 105.2C31.7883 104.802 31.681 104.35 31.666 103.837L31.3661 103.845L31.0662 103.854C31.0834 104.442 31.2074 104.98 31.4436 105.464L31.7131 105.332ZM31.3661 103.845L31.666 103.837C31.6508 103.317 31.7307 102.864 31.8977 102.472L31.6217 102.354L31.3457 102.237C31.1394 102.721 31.0489 103.262 31.0662 103.854L31.3661 103.845ZM31.6217 102.354L31.8984 102.47C32.0648 102.074 32.295 101.767 32.5854 101.539L32.4004 101.303L32.2153 101.067C31.8354 101.364 31.5465 101.758 31.3451 102.238L31.6217 102.354ZM32.4004 101.303L32.5867 101.538C32.8727 101.311 33.1988 101.187 33.5737 101.164L33.5552 100.864L33.5368 100.565C33.042 100.595 32.5981 100.763 32.214 101.068L32.4004 101.303ZM33.5552 100.864L33.2553 100.873L33.2849 101.884L33.5848 101.875L33.8847 101.866L33.8551 100.855L33.5552 100.864Z" fill="black" mask="url(#path-5-outside-1_263_256)"/>
<mask id="path-7-outside-2_263_256" maskUnits="userSpaceOnUse" x="31.2951" y="90.392" width="11.2868" height="9.01402" fill="black">
<rect fill="white" x="31.2951" y="90.392" width="11.2868" height="9.01402"/>
<path d="M40.3062 98.1679L31.8846 96.2842L33.0214 91.2016L33.9261 91.404L33.0174 95.4667L35.8629 96.1032L36.7128 92.3036L37.6175 92.506L36.7676 96.3056L39.6296 96.9457L40.5531 92.8172L41.4577 93.0195L40.3062 98.1679Z"/>
</mask>
<path d="M40.3062 98.1679L31.8846 96.2842L33.0214 91.2016L33.9261 91.404L33.0174 95.4667L35.8629 96.1032L36.7128 92.3036L37.6175 92.506L36.7676 96.3056L39.6296 96.9457L40.5531 92.8172L41.4577 93.0195L40.3062 98.1679Z" fill="black"/>
<path d="M40.3062 98.1679L40.2407 98.4607L40.5335 98.5261L40.5989 98.2334L40.3062 98.1679ZM31.8846 96.2842L31.5918 96.2187L31.5263 96.5115L31.8191 96.577L31.8846 96.2842ZM33.0214 91.2016L33.0869 90.9089L32.7941 90.8434L32.7287 91.1361L33.0214 91.2016ZM33.9261 91.404L34.2189 91.4695L34.2843 91.1767L33.9916 91.1112L33.9261 91.404ZM33.0174 95.4667L32.7246 95.4013L32.6591 95.694L32.9519 95.7595L33.0174 95.4667ZM35.8629 96.1032L35.7974 96.396L36.0902 96.4615L36.1557 96.1687L35.8629 96.1032ZM36.7128 92.3036L36.7783 92.0109L36.4855 91.9454L36.42 92.2382L36.7128 92.3036ZM37.6175 92.506L37.9102 92.5715L37.9757 92.2787L37.683 92.2132L37.6175 92.506ZM36.7676 96.3056L36.4748 96.2401L36.4093 96.5329L36.7021 96.5983L36.7676 96.3056ZM39.6296 96.9457L39.5641 97.2385L39.8569 97.304L39.9224 97.0112L39.6296 96.9457ZM40.5531 92.8172L40.6186 92.5244L40.3258 92.4589L40.2603 92.7517L40.5531 92.8172ZM41.4577 93.0195L41.7505 93.085L41.816 92.7923L41.5232 92.7268L41.4577 93.0195ZM40.3062 98.1679L40.3717 97.8751L31.9501 95.9914L31.8846 96.2842L31.8191 96.577L40.2407 98.4607L40.3062 98.1679ZM31.8846 96.2842L32.1774 96.3497L33.3142 91.2671L33.0214 91.2016L32.7287 91.1361L31.5918 96.2187L31.8846 96.2842ZM33.0214 91.2016L32.9559 91.4944L33.8606 91.6967L33.9261 91.404L33.9916 91.1112L33.0869 90.9089L33.0214 91.2016ZM33.9261 91.404L33.6333 91.3385L32.7246 95.4013L33.0174 95.4667L33.3101 95.5322L34.2189 91.4695L33.9261 91.404ZM33.0174 95.4667L32.9519 95.7595L35.7974 96.396L35.8629 96.1032L35.9284 95.8105L33.0828 95.174L33.0174 95.4667ZM35.8629 96.1032L36.1557 96.1687L37.0056 92.3691L36.7128 92.3036L36.42 92.2382L35.5702 96.0377L35.8629 96.1032ZM36.7128 92.3036L36.6473 92.5964L37.552 92.7988L37.6175 92.506L37.683 92.2132L36.7783 92.0109L36.7128 92.3036ZM37.6175 92.506L37.3247 92.4405L36.4748 96.2401L36.7676 96.3056L37.0604 96.3711L37.9102 92.5715L37.6175 92.506ZM36.7676 96.3056L36.7021 96.5983L39.5641 97.2385L39.6296 96.9457L39.6951 96.653L36.8331 96.0128L36.7676 96.3056ZM39.6296 96.9457L39.9224 97.0112L40.8458 92.8827L40.5531 92.8172L40.2603 92.7517L39.3369 96.8803L39.6296 96.9457ZM40.5531 92.8172L40.4876 93.11L41.3923 93.3123L41.4577 93.0195L41.5232 92.7268L40.6186 92.5244L40.5531 92.8172ZM41.4577 93.0195L41.165 92.9541L40.0134 98.1024L40.3062 98.1679L40.5989 98.2334L41.7505 93.085L41.4577 93.0195Z" fill="black" mask="url(#path-7-outside-2_263_256)"/>
<mask id="path-9-outside-3_263_256" maskUnits="userSpaceOnUse" x="33.5846" y="81.7576" width="11.9966" height="10.5003" fill="black">
<rect fill="white" x="33.5846" y="81.7576" width="11.9966" height="10.5003"/>
<path d="M42.215 90.8935L34.3529 87.3356L34.7837 86.3835L41.8012 89.5592L43.4551 85.9046L44.2997 86.2868L42.215 90.8935Z"/>
</mask>
<path d="M42.215 90.8935L34.3529 87.3356L34.7837 86.3835L41.8012 89.5592L43.4551 85.9046L44.2997 86.2868L42.215 90.8935Z" fill="black"/>
<path d="M42.215 90.8935L42.0913 91.1668L42.3646 91.2905L42.4883 91.0172L42.215 90.8935ZM34.3529 87.3356L34.0795 87.2119L33.9558 87.4852L34.2292 87.6089L34.3529 87.3356ZM34.7837 86.3835L34.9074 86.1102L34.6341 85.9865L34.5104 86.2598L34.7837 86.3835ZM41.8012 89.5592L41.6776 89.8326L41.9509 89.9562L42.0746 89.6829L41.8012 89.5592ZM43.4551 85.9046L43.5788 85.6313L43.3055 85.5076L43.1818 85.7809L43.4551 85.9046ZM44.2997 86.2868L44.573 86.4105L44.6967 86.1372L44.4234 86.0135L44.2997 86.2868ZM42.215 90.8935L42.3386 90.6202L34.4765 87.0623L34.3529 87.3356L34.2292 87.6089L42.0913 91.1668L42.215 90.8935ZM34.3529 87.3356L34.6262 87.4593L35.057 86.5072L34.7837 86.3835L34.5104 86.2598L34.0795 87.2119L34.3529 87.3356ZM34.7837 86.3835L34.66 86.6568L41.6776 89.8326L41.8012 89.5592L41.9249 89.2859L34.9074 86.1102L34.7837 86.3835ZM41.8012 89.5592L42.0746 89.6829L43.7284 86.0283L43.4551 85.9046L43.1818 85.7809L41.5279 89.4356L41.8012 89.5592ZM43.4551 85.9046L43.3314 86.1779L44.176 86.5601L44.2997 86.2868L44.4234 86.0135L43.5788 85.6313L43.4551 85.9046ZM44.2997 86.2868L44.0264 86.1631L41.9416 90.7698L42.215 90.8935L42.4883 91.0172L44.573 86.4105L44.2997 86.2868Z" fill="black" mask="url(#path-9-outside-3_263_256)"/>
<mask id="path-11-outside-4_263_256" maskUnits="userSpaceOnUse" x="37.7169" y="73.5049" width="12.1884" height="11.2244" fill="black">
<rect fill="white" x="37.7169" y="73.5049" width="12.1884" height="11.2244"/>
<path d="M45.9121 83.3139L38.5831 78.7578L39.1348 77.8703L45.6765 81.937L47.7943 78.5302L48.5816 79.0196L45.9121 83.3139Z"/>
</mask>
<path d="M45.9121 83.3139L38.5831 78.7578L39.1348 77.8703L45.6765 81.937L47.7943 78.5302L48.5816 79.0196L45.9121 83.3139Z" fill="black"/>
<path d="M45.9121 83.3139L45.7537 83.5687L46.0084 83.7271L46.1668 83.4723L45.9121 83.3139ZM38.5831 78.7578L38.3283 78.5995L38.1699 78.8542L38.4247 79.0126L38.5831 78.7578ZM39.1348 77.8703L39.2932 77.6156L39.0384 77.4572L38.88 77.712L39.1348 77.8703ZM45.6765 81.937L45.5181 82.1918L45.7729 82.3502L45.9313 82.0954L45.6765 81.937ZM47.7943 78.5302L47.9527 78.2754L47.6979 78.117L47.5395 78.3718L47.7943 78.5302ZM48.5816 79.0196L48.8364 79.178L48.9948 78.9232L48.74 78.7648L48.5816 79.0196ZM45.9121 83.3139L46.0704 83.0591L38.7415 78.5031L38.5831 78.7578L38.4247 79.0126L45.7537 83.5687L45.9121 83.3139ZM38.5831 78.7578L38.8379 78.9162L39.3896 78.0287L39.1348 77.8703L38.88 77.712L38.3283 78.5995L38.5831 78.7578ZM39.1348 77.8703L38.9764 78.1251L45.5181 82.1918L45.6765 81.937L45.8349 81.6822L39.2932 77.6156L39.1348 77.8703ZM45.6765 81.937L45.9313 82.0954L48.0491 78.6885L47.7943 78.5302L47.5395 78.3718L45.4217 81.7786L45.6765 81.937ZM47.7943 78.5302L47.6359 78.7849L48.4232 79.2744L48.5816 79.0196L48.74 78.7648L47.9527 78.2754L47.7943 78.5302ZM48.5816 79.0196L48.3268 78.8612L45.6573 83.1555L45.9121 83.3139L46.1668 83.4723L48.8364 79.178L48.5816 79.0196Z" fill="black" mask="url(#path-11-outside-4_263_256)"/>
<mask id="path-13-outside-5_263_256" maskUnits="userSpaceOnUse" x="166.202" y="79.1441" width="13.2594" height="11.6805" fill="black">
<rect fill="white" x="166.202" y="79.1441" width="13.2594" height="11.6805"/>
<path d="M167.543 84.061L175.68 80.5818L176.897 83.4265C177.139 83.9933 177.241 84.5027 177.202 84.9547C177.166 85.4056 177.023 85.7913 176.771 86.1118C176.522 86.4312 176.199 86.6759 175.802 86.8458C175.452 86.9953 175.137 87.0565 174.856 87.0294C174.576 87.0049 174.327 86.9204 174.108 86.7757C173.891 86.6337 173.701 86.4597 173.538 86.2538L173.458 86.2878C173.549 86.5436 173.568 86.8312 173.517 87.1508C173.466 87.4704 173.328 87.7784 173.104 88.0748C172.879 88.3711 172.553 88.611 172.124 88.7945C171.716 88.9689 171.309 89.0331 170.904 88.987C170.499 88.9409 170.116 88.7586 169.754 88.4402C169.392 88.1218 169.074 87.6421 168.8 87.0011L167.543 84.061ZM168.839 84.6726L169.674 86.6273C169.95 87.271 170.27 87.6747 170.634 87.8384C171.002 88.0036 171.365 88.0098 171.723 87.8569C171.998 87.7391 172.223 87.5602 172.396 87.3201C172.571 87.0789 172.674 86.7985 172.703 86.4789C172.735 86.1582 172.675 85.8204 172.524 85.4654L171.667 83.463L168.839 84.6726ZM172.526 83.0961L173.307 84.9237C173.434 85.2203 173.607 85.4629 173.825 85.6515C174.045 85.8427 174.29 85.9632 174.562 86.013C174.835 86.0654 175.115 86.0304 175.401 85.9081C175.759 85.7552 176.009 85.5011 176.151 85.1456C176.296 84.7891 176.253 84.3406 176.022 83.8003L175.227 81.9408L172.526 83.0961Z"/>
</mask>
<path d="M167.543 84.061L175.68 80.5818L176.897 83.4265C177.139 83.9933 177.241 84.5027 177.202 84.9547C177.166 85.4056 177.023 85.7913 176.771 86.1118C176.522 86.4312 176.199 86.6759 175.802 86.8458C175.452 86.9953 175.137 87.0565 174.856 87.0294C174.576 87.0049 174.327 86.9204 174.108 86.7757C173.891 86.6337 173.701 86.4597 173.538 86.2538L173.458 86.2878C173.549 86.5436 173.568 86.8312 173.517 87.1508C173.466 87.4704 173.328 87.7784 173.104 88.0748C172.879 88.3711 172.553 88.611 172.124 88.7945C171.716 88.9689 171.309 89.0331 170.904 88.987C170.499 88.9409 170.116 88.7586 169.754 88.4402C169.392 88.1218 169.074 87.6421 168.8 87.0011L167.543 84.061ZM168.839 84.6726L169.674 86.6273C169.95 87.271 170.27 87.6747 170.634 87.8384C171.002 88.0036 171.365 88.0098 171.723 87.8569C171.998 87.7391 172.223 87.5602 172.396 87.3201C172.571 87.0789 172.674 86.7985 172.703 86.4789C172.735 86.1582 172.675 85.8204 172.524 85.4654L171.667 83.463L168.839 84.6726ZM172.526 83.0961L173.307 84.9237C173.434 85.2203 173.607 85.4629 173.825 85.6515C174.045 85.8427 174.29 85.9632 174.562 86.013C174.835 86.0654 175.115 86.0304 175.401 85.9081C175.759 85.7552 176.009 85.5011 176.151 85.1456C176.296 84.7891 176.253 84.3406 176.022 83.8003L175.227 81.9408L172.526 83.0961Z" fill="black"/>
<path d="M167.543 84.061L167.425 83.7852L167.149 83.9031L167.267 84.1789L167.543 84.061ZM175.68 80.5818L175.956 80.4638L175.838 80.188L175.562 80.3059L175.68 80.5818ZM177.202 84.9547L176.903 84.9292L176.903 84.9309L177.202 84.9547ZM176.771 86.1118L176.535 85.9267L176.534 85.9275L176.771 86.1118ZM174.856 87.0294L174.885 86.7308L174.882 86.7305L174.856 87.0294ZM174.108 86.7757L174.274 86.5256L174.273 86.5246L174.108 86.7757ZM173.538 86.2538L173.773 86.0674L173.63 85.8879L173.42 85.978L173.538 86.2538ZM173.458 86.2878L173.34 86.012L173.081 86.1226L173.175 86.3879L173.458 86.2878ZM173.517 87.1508L173.221 87.1033L173.517 87.1508ZM170.904 88.987L170.87 89.2851L170.904 88.987ZM169.754 88.4402L169.952 88.215L169.754 88.4402ZM168.839 84.6726L168.721 84.3967L168.445 84.5147L168.563 84.7905L168.839 84.6726ZM170.634 87.8384L170.511 88.112L170.511 88.1121L170.634 87.8384ZM172.396 87.3201L172.153 87.1435L172.152 87.1447L172.396 87.3201ZM172.703 86.4789L172.405 86.4491L172.405 86.4515L172.703 86.4789ZM171.667 83.463L171.943 83.3451L171.825 83.0692L171.55 83.1872L171.667 83.463ZM172.526 83.0961L172.408 82.8202L172.132 82.9382L172.25 83.214L172.526 83.0961ZM173.825 85.6515L174.022 85.4252L174.021 85.4244L173.825 85.6515ZM174.562 86.013L174.619 85.7183L174.616 85.7179L174.562 86.013ZM176.151 85.1456L175.873 85.0325L175.873 85.034L176.151 85.1456ZM175.227 81.9408L175.503 81.8229L175.385 81.5471L175.109 81.665L175.227 81.9408ZM167.543 84.061L167.661 84.3368L175.798 80.8576L175.68 80.5818L175.562 80.3059L167.425 83.7852L167.543 84.061ZM175.68 80.5818L175.404 80.6997L176.621 83.5445L176.897 83.4265L177.172 83.3086L175.956 80.4638L175.68 80.5818ZM176.897 83.4265L176.621 83.5445C176.85 84.0816 176.936 84.5406 176.903 84.9292L177.202 84.9547L177.501 84.9802C177.545 84.4649 177.427 83.9051 177.172 83.3086L176.897 83.4265ZM177.202 84.9547L176.903 84.9309C176.871 85.3297 176.746 85.6576 176.535 85.9267L176.771 86.1118L177.007 86.297C177.299 85.925 177.461 85.4815 177.501 84.9786L177.202 84.9547ZM176.771 86.1118L176.534 85.9275C176.319 86.2042 176.038 86.4186 175.684 86.5699L175.802 86.8458L175.92 87.1216C176.361 86.9332 176.726 86.6583 177.008 86.2962L176.771 86.1118ZM175.802 86.8458L175.684 86.5699C175.365 86.7062 175.101 86.7517 174.885 86.7308L174.856 87.0294L174.827 87.328C175.173 87.3613 175.539 87.2843 175.92 87.1216L175.802 86.8458ZM174.856 87.0294L174.882 86.7305C174.648 86.7101 174.448 86.6407 174.274 86.5256L174.108 86.7757L173.943 87.0259C174.206 87.2001 174.504 87.2998 174.83 87.3283L174.856 87.0294ZM174.108 86.7757L174.273 86.5246C174.082 86.4004 173.916 86.2484 173.773 86.0674L173.538 86.2538L173.302 86.4402C173.485 86.6711 173.7 86.867 173.944 87.0269L174.108 86.7757ZM173.538 86.2538L173.42 85.978L173.34 86.012L173.458 86.2878L173.576 86.5636L173.655 86.5297L173.538 86.2538ZM173.458 86.2878L173.175 86.3879C173.246 86.588 173.266 86.8237 173.221 87.1033L173.517 87.1508L173.813 87.1984C173.871 86.8388 173.851 86.4991 173.741 86.1877L173.458 86.2878ZM173.517 87.1508L173.221 87.1033C173.178 87.3676 173.063 87.6307 172.864 87.8938L173.104 88.0748L173.343 88.2557C173.592 87.9261 173.753 87.5732 173.813 87.1984L173.517 87.1508ZM173.104 88.0748L172.864 87.8938C172.679 88.1391 172.399 88.3505 172.006 88.5187L172.124 88.7945L172.242 89.0704C172.707 88.8715 173.08 88.6031 173.343 88.2557L173.104 88.0748ZM172.124 88.7945L172.006 88.5187C171.641 88.6745 171.287 88.7286 170.938 88.6889L170.904 88.987L170.87 89.2851C171.332 89.3376 171.79 89.2634 172.242 89.0704L172.124 88.7945ZM170.904 88.987L170.938 88.6889C170.605 88.6509 170.277 88.5005 169.952 88.215L169.754 88.4402L169.556 88.6654C169.955 89.0168 170.394 89.2308 170.87 89.2851L170.904 88.987ZM169.754 88.4402L169.952 88.215C169.636 87.9363 169.34 87.5 169.076 86.8831L168.8 87.0011L168.525 87.119C168.809 87.7841 169.149 88.3073 169.556 88.6654L169.754 88.4402ZM168.8 87.0011L169.076 86.8831L167.819 83.943L167.543 84.061L167.267 84.1789L168.525 87.119L168.8 87.0011ZM168.839 84.6726L168.563 84.7905L169.399 86.7453L169.674 86.6273L169.95 86.5094L169.114 84.5546L168.839 84.6726ZM169.674 86.6273L169.399 86.7453C169.683 87.4106 170.042 87.9013 170.511 88.112L170.634 87.8384L170.757 87.5647C170.497 87.448 170.216 87.1314 169.95 86.5094L169.674 86.6273ZM170.634 87.8384L170.511 88.1121C170.953 88.3101 171.403 88.3199 171.841 88.1327L171.723 87.8569L171.605 87.581C171.328 87.6996 171.052 87.6971 170.757 87.5647L170.634 87.8384ZM171.723 87.8569L171.841 88.1327C172.166 87.9938 172.434 87.7804 172.639 87.4956L172.396 87.3201L172.152 87.1447C172.012 87.3399 171.831 87.4844 171.605 87.581L171.723 87.8569ZM172.396 87.3201L172.638 87.4968C172.848 87.2085 172.968 86.8757 173.002 86.5064L172.703 86.4789L172.405 86.4515C172.38 86.7214 172.295 86.9493 172.153 87.1435L172.396 87.3201ZM172.703 86.4789L173.002 86.5088C173.04 86.1286 172.967 85.7398 172.8 85.3475L172.524 85.4654L172.248 85.5834C172.384 85.9009 172.431 86.1878 172.405 86.4491L172.703 86.4789ZM172.524 85.4654L172.8 85.3475L171.943 83.3451L171.667 83.463L171.392 83.5809L172.248 85.5834L172.524 85.4654ZM171.667 83.463L171.55 83.1872L168.721 84.3967L168.839 84.6726L168.957 84.9484L171.785 83.7388L171.667 83.463ZM172.526 83.0961L172.25 83.214L173.031 85.0416L173.307 84.9237L173.583 84.8057L172.802 82.9781L172.526 83.0961ZM173.307 84.9237L173.031 85.0416C173.174 85.3753 173.372 85.6569 173.629 85.8786L173.825 85.6515L174.021 85.4244C173.841 85.269 173.694 85.0654 173.583 84.8057L173.307 84.9237ZM173.825 85.6515L173.628 85.8778C173.886 86.1024 174.181 86.2481 174.508 86.3081L174.562 86.013L174.616 85.7179C174.4 85.6783 174.203 85.583 174.022 85.4252L173.825 85.6515ZM174.562 86.013L174.506 86.3076C174.845 86.3726 175.185 86.3269 175.519 86.184L175.401 85.9081L175.283 85.6323C175.045 85.734 174.826 85.7582 174.619 85.7183L174.562 86.013ZM175.401 85.9081L175.519 86.184C175.948 86.0003 176.257 85.6878 176.43 85.2573L176.151 85.1456L175.873 85.034C175.76 85.3143 175.569 85.5101 175.283 85.6323L175.401 85.9081ZM176.151 85.1456L176.429 85.2587C176.617 84.7968 176.545 84.2582 176.298 83.6823L176.022 83.8003L175.747 83.9182C175.962 84.423 175.976 84.7813 175.873 85.0325L176.151 85.1456ZM176.022 83.8003L176.298 83.6823L175.503 81.8229L175.227 81.9408L174.952 82.0588L175.747 83.9182L176.022 83.8003ZM175.227 81.9408L175.109 81.665L172.408 82.8202L172.526 83.0961L172.644 83.3719L175.345 82.2167L175.227 81.9408Z" fill="black" mask="url(#path-13-outside-5_263_256)"/>
<mask id="path-15-outside-6_263_256" maskUnits="userSpaceOnUse" x="169.348" y="87.0447" width="13.4127" height="12.2162" fill="black">
<rect fill="white" x="169.348" y="87.0447" width="13.4127" height="12.2162"/>
<path d="M180.954 93.903L181.321 94.9102L175.814 96.9118C175.245 97.1184 174.689 97.1689 174.145 97.0633C173.604 96.9593 173.117 96.7118 172.684 96.3206C172.253 95.9285 171.919 95.4062 171.682 94.7537C171.445 94.1012 171.366 93.4864 171.444 92.9093C171.525 92.3312 171.739 91.8274 172.085 91.398C172.436 90.9703 172.895 90.6531 173.464 90.4465L178.971 88.4449L179.337 89.4521L173.911 91.4241C173.505 91.5717 173.176 91.7924 172.924 92.0863C172.675 92.3791 172.52 92.7236 172.458 93.1199C172.401 93.5178 172.456 93.9483 172.624 94.4113C172.793 94.8742 173.027 95.2398 173.326 95.5078C173.629 95.7749 173.969 95.9394 174.347 96.0012C174.729 96.0647 175.123 96.0227 175.529 95.8751L180.954 93.903Z"/>
</mask>
<path d="M180.954 93.903L181.321 94.9102L175.814 96.9118C175.245 97.1184 174.689 97.1689 174.145 97.0633C173.604 96.9593 173.117 96.7118 172.684 96.3206C172.253 95.9285 171.919 95.4062 171.682 94.7537C171.445 94.1012 171.366 93.4864 171.444 92.9093C171.525 92.3312 171.739 91.8274 172.085 91.398C172.436 90.9703 172.895 90.6531 173.464 90.4465L178.971 88.4449L179.337 89.4521L173.911 91.4241C173.505 91.5717 173.176 91.7924 172.924 92.0863C172.675 92.3791 172.52 92.7236 172.458 93.1199C172.401 93.5178 172.456 93.9483 172.624 94.4113C172.793 94.8742 173.027 95.2398 173.326 95.5078C173.629 95.7749 173.969 95.9394 174.347 96.0012C174.729 96.0647 175.123 96.0227 175.529 95.8751L180.954 93.903Z" fill="black"/>
<path d="M180.954 93.903L181.236 93.8006L181.134 93.5186L180.852 93.6211L180.954 93.903ZM181.321 94.9102L181.423 95.1921L181.705 95.0897L181.603 94.8077L181.321 94.9102ZM174.145 97.0633L174.202 96.7688L174.201 96.7687L174.145 97.0633ZM172.684 96.3206L172.482 96.5425L172.483 96.5433L172.684 96.3206ZM171.444 92.9093L171.147 92.8676L171.147 92.8689L171.444 92.9093ZM172.085 91.398L171.853 91.2079L171.852 91.2096L172.085 91.398ZM178.971 88.4449L179.253 88.3424L179.15 88.0605L178.868 88.1629L178.971 88.4449ZM179.337 89.4521L179.439 89.734L179.721 89.6315L179.619 89.3496L179.337 89.4521ZM172.924 92.0863L172.696 91.891L172.696 91.8919L172.924 92.0863ZM172.458 93.1199L172.162 93.074L172.162 93.0769L172.458 93.1199ZM173.326 95.5078L173.126 95.7314L173.128 95.7327L173.326 95.5078ZM174.347 96.0012L174.396 95.7053L174.396 95.7051L174.347 96.0012ZM180.954 93.903L180.673 94.0055L181.039 95.0127L181.321 94.9102L181.603 94.8077L181.236 93.8006L180.954 93.903ZM181.321 94.9102L181.218 94.6282L175.711 96.6298L175.814 96.9118L175.916 97.1937L181.423 95.1921L181.321 94.9102ZM175.814 96.9118L175.711 96.6298C175.189 96.8197 174.688 96.8631 174.202 96.7688L174.145 97.0633L174.087 97.3578C174.69 97.4747 175.301 97.4172 175.916 97.1937L175.814 96.9118ZM174.145 97.0633L174.201 96.7687C173.718 96.6757 173.28 96.4547 172.885 96.0979L172.684 96.3206L172.483 96.5433C172.954 96.9689 173.49 97.2429 174.088 97.3579L174.145 97.0633ZM172.684 96.3206L172.886 96.0988C172.497 95.7451 172.188 95.2668 171.964 94.6512L171.682 94.7537L171.4 94.8562C171.651 95.5456 172.009 96.1119 172.482 96.5425L172.684 96.3206ZM171.682 94.7537L171.964 94.6512C171.74 94.0357 171.671 93.4702 171.741 92.9497L171.444 92.9093L171.147 92.8689C171.061 93.5027 171.15 94.1668 171.4 94.8562L171.682 94.7537ZM171.444 92.9093L171.741 92.951C171.815 92.4234 172.008 91.9711 172.319 91.5864L172.085 91.398L171.852 91.2096C171.469 91.6837 171.235 92.239 171.147 92.8676L171.444 92.9093ZM172.085 91.398L172.318 91.5881C172.631 91.206 173.043 90.9185 173.566 90.7284L173.464 90.4465L173.361 90.1645C172.747 90.3878 172.241 90.7346 171.853 91.2079L172.085 91.398ZM173.464 90.4465L173.566 90.7284L179.073 88.7268L178.971 88.4449L178.868 88.1629L173.361 90.1645L173.464 90.4465ZM178.971 88.4449L178.689 88.5474L179.055 89.5545L179.337 89.4521L179.619 89.3496L179.253 88.3424L178.971 88.4449ZM179.337 89.4521L179.234 89.1701L173.809 91.1422L173.911 91.4241L174.014 91.7061L179.439 89.734L179.337 89.4521ZM173.911 91.4241L173.809 91.1422C173.36 91.3053 172.986 91.5536 172.696 91.891L172.924 92.0863L173.152 92.2815C173.366 92.0313 173.65 91.8381 174.014 91.7061L173.911 91.4241ZM172.924 92.0863L172.696 91.8919C172.409 92.2288 172.231 92.6254 172.162 93.074L172.458 93.1199L172.755 93.1658C172.808 92.8219 172.941 92.5294 173.153 92.2806L172.924 92.0863ZM172.458 93.1199L172.162 93.0769C172.095 93.5337 172.161 94.0146 172.342 94.5138L172.624 94.4113L172.906 94.3088C172.751 93.882 172.706 93.502 172.755 93.1629L172.458 93.1199ZM172.624 94.4113L172.342 94.5138C172.524 95.0129 172.782 95.4237 173.126 95.7314L173.326 95.5078L173.526 95.2842C173.271 95.0558 173.061 94.7356 172.906 94.3088L172.624 94.4113ZM173.326 95.5078L173.128 95.7327C173.47 96.0351 173.862 96.2258 174.299 96.2972L174.347 96.0012L174.396 95.7051C174.076 95.6529 173.787 95.5147 173.525 95.2829L173.326 95.5078ZM174.347 96.0012L174.298 96.2971C174.736 96.3701 175.182 96.3202 175.631 96.1571L175.529 95.8751L175.426 95.5931C175.063 95.7252 174.721 95.7594 174.396 95.7053L174.347 96.0012ZM175.529 95.8751L175.631 96.1571L181.057 94.185L180.954 93.903L180.852 93.6211L175.426 95.5931L175.529 95.8751Z" fill="black" mask="url(#path-15-outside-6_263_256)"/>
<mask id="path-17-outside-7_263_256" maskUnits="userSpaceOnUse" x="172.165" y="95.1244" width="13.4541" height="12.7923" fill="black">
<rect fill="white" x="172.165" y="95.1244" width="13.4541" height="12.7923"/>
<path d="M181.964 96.7158L182.325 97.8887L179.099 101.449L179.129 101.548L183.799 102.68L184.16 103.853L178.247 102.326L174.761 103.398L174.446 102.374L177.932 101.302L181.964 96.7158Z"/>
</mask>
<path d="M181.964 96.7158L182.325 97.8887L179.099 101.449L179.129 101.548L183.799 102.68L184.16 103.853L178.247 102.326L174.761 103.398L174.446 102.374L177.932 101.302L181.964 96.7158Z" fill="black"/>
<path d="M181.964 96.7158L182.251 96.6276L182.093 96.1148L181.739 96.5177L181.964 96.7158ZM182.325 97.8887L182.548 98.0902L182.662 97.9637L182.612 97.8005L182.325 97.8887ZM179.099 101.449L178.876 101.248L178.762 101.374L178.812 101.537L179.099 101.449ZM179.129 101.548L178.842 101.637L178.893 101.8L179.058 101.84L179.129 101.548ZM183.799 102.68L184.086 102.591L184.036 102.428L183.87 102.388L183.799 102.68ZM184.16 103.853L184.085 104.143L184.604 104.277L184.447 103.764L184.16 103.853ZM178.247 102.326L178.322 102.036L178.24 102.014L178.159 102.039L178.247 102.326ZM174.761 103.398L174.475 103.487L174.563 103.773L174.85 103.685L174.761 103.398ZM174.446 102.374L174.358 102.087L174.071 102.176L174.16 102.462L174.446 102.374ZM177.932 101.302L178.02 101.588L178.101 101.564L178.157 101.5L177.932 101.302ZM181.964 96.7158L181.678 96.804L182.039 97.9769L182.325 97.8887L182.612 97.8005L182.251 96.6276L181.964 96.7158ZM182.325 97.8887L182.103 97.6873L178.876 101.248L179.099 101.449L179.321 101.651L182.548 98.0902L182.325 97.8887ZM179.099 101.449L178.812 101.537L178.842 101.637L179.129 101.548L179.416 101.46L179.385 101.361L179.099 101.449ZM179.129 101.548L179.058 101.84L183.728 102.971L183.799 102.68L183.87 102.388L179.2 101.257L179.129 101.548ZM183.799 102.68L183.512 102.768L183.873 103.941L184.16 103.853L184.447 103.764L184.086 102.591L183.799 102.68ZM184.16 103.853L184.235 103.562L178.322 102.036L178.247 102.326L178.172 102.616L184.085 104.143L184.16 103.853ZM178.247 102.326L178.159 102.039L174.673 103.112L174.761 103.398L174.85 103.685L178.335 102.613L178.247 102.326ZM174.761 103.398L175.048 103.31L174.733 102.286L174.446 102.374L174.16 102.462L174.475 103.487L174.761 103.398ZM174.446 102.374L174.534 102.661L178.02 101.588L177.932 101.302L177.844 101.015L174.358 102.087L174.446 102.374ZM177.932 101.302L178.157 101.5L182.19 96.9139L181.964 96.7158L181.739 96.5177L177.707 101.104L177.932 101.302Z" fill="black" mask="url(#path-17-outside-7_263_256)"/>
<mask id="path-19-outside-8_263_256" maskUnits="userSpaceOnUse" x="84.3302" y="35.6031" width="10.6828" height="11.9725" fill="black">
<rect fill="white" x="84.3302" y="35.6031" width="10.6828" height="11.9725"/>
<path d="M91.8288 36.258L94.4103 44.2642L93.4721 44.5668L87.0824 39.6874L87.0043 39.7126L89.0312 45.9987L88.0617 46.3113L85.4801 38.3051L86.4184 38.0026L92.8287 42.8926L92.9069 42.8674L90.8749 36.5656L91.8288 36.258Z"/>
</mask>
<path d="M91.8288 36.258L94.4103 44.2642L93.4721 44.5668L87.0824 39.6874L87.0043 39.7126L89.0312 45.9987L88.0617 46.3113L85.4801 38.3051L86.4184 38.0026L92.8287 42.8926L92.9069 42.8674L90.8749 36.5656L91.8288 36.258Z" fill="black"/>
<path d="M91.8288 36.258L92.0247 36.1949L91.9615 35.999L91.7656 36.0621L91.8288 36.258ZM94.4103 44.2642L94.4735 44.4601L94.6694 44.397L94.6062 44.2011L94.4103 44.2642ZM93.4721 44.5668L93.3472 44.7303L93.4328 44.7957L93.5353 44.7627L93.4721 44.5668ZM87.0824 39.6874L87.2074 39.5238L87.1218 39.4584L87.0193 39.4915L87.0824 39.6874ZM87.0043 39.7126L86.9411 39.5167L86.7452 39.5798L86.8084 39.7757L87.0043 39.7126ZM89.0312 45.9987L89.0943 46.1946L89.2902 46.1314L89.227 45.9355L89.0312 45.9987ZM88.0617 46.3113L87.8658 46.3745L87.9289 46.5704L88.1248 46.5072L88.0617 46.3113ZM85.4801 38.3051L85.417 38.1092L85.2211 38.1724L85.2842 38.3683L85.4801 38.3051ZM86.4184 38.0026L86.5432 37.8389L86.4576 37.7737L86.3552 37.8067L86.4184 38.0026ZM92.8287 42.8926L92.7039 43.0562L92.7894 43.1215L92.8919 43.0885L92.8287 42.8926ZM92.9069 42.8674L92.97 43.0632L93.1659 43.0001L93.1028 42.8042L92.9069 42.8674ZM90.8749 36.5656L90.8118 36.3697L90.6159 36.4329L90.679 36.6288L90.8749 36.5656ZM91.8288 36.258L91.6329 36.3212L94.2144 44.3274L94.4103 44.2642L94.6062 44.2011L92.0247 36.1949L91.8288 36.258ZM94.4103 44.2642L94.3472 44.0684L93.4089 44.3709L93.4721 44.5668L93.5353 44.7627L94.4735 44.4601L94.4103 44.2642ZM93.4721 44.5668L93.597 44.4032L87.2074 39.5238L87.0824 39.6874L86.9575 39.8509L93.3472 44.7303L93.4721 44.5668ZM87.0824 39.6874L87.0193 39.4915L86.9411 39.5167L87.0043 39.7126L87.0674 39.9085L87.1456 39.8833L87.0824 39.6874ZM87.0043 39.7126L86.8084 39.7757L88.8353 46.0619L89.0312 45.9987L89.227 45.9355L87.2001 39.6494L87.0043 39.7126ZM89.0312 45.9987L88.968 45.8028L87.9985 46.1154L88.0617 46.3113L88.1248 46.5072L89.0943 46.1946L89.0312 45.9987ZM88.0617 46.3113L88.2575 46.2482L85.676 38.2419L85.4801 38.3051L85.2842 38.3683L87.8658 46.3745L88.0617 46.3113ZM85.4801 38.3051L85.5433 38.501L86.4815 38.1985L86.4184 38.0026L86.3552 37.8067L85.417 38.1092L85.4801 38.3051ZM86.4184 38.0026L86.2935 38.1662L92.7039 43.0562L92.8287 42.8926L92.9535 42.7289L86.5432 37.8389L86.4184 38.0026ZM92.8287 42.8926L92.8919 43.0885L92.97 43.0632L92.9069 42.8674L92.8437 42.6715L92.7655 42.6967L92.8287 42.8926ZM92.9069 42.8674L93.1028 42.8042L91.0708 36.5024L90.8749 36.5656L90.679 36.6288L92.711 42.9305L92.9069 42.8674ZM90.8749 36.5656L90.9381 36.7615L91.892 36.4539L91.8288 36.258L91.7656 36.0621L90.8118 36.3697L90.8749 36.5656Z" fill="black" mask="url(#path-19-outside-8_263_256)"/>
<mask id="path-21-outside-9_263_256" maskUnits="userSpaceOnUse" x="94.4731" y="35.9084" width="8.22051" height="9.04241" fill="black">
<rect fill="white" x="94.4731" y="35.9084" width="8.22051" height="9.04241"/>
<path d="M99.1304 43.513C98.5307 43.613 97.9914 43.5669 97.5124 43.3747C97.0357 43.1794 96.6399 42.8623 96.3252 42.4234C96.0128 41.9813 95.8034 41.4416 95.6971 40.8041C95.5908 40.1667 95.6133 39.5855 95.7645 39.0606C95.9179 38.5325 96.1813 38.0972 96.5544 37.7546C96.9298 37.4088 97.3985 37.1891 97.9603 37.0954C98.2844 37.0413 98.6135 37.042 98.9475 37.0973C99.2815 37.1527 99.5985 37.2803 99.8983 37.4801C100.198 37.6773 100.457 37.9615 100.678 38.3329C100.898 38.7043 101.056 39.1804 101.153 39.7611L101.221 40.1662L96.4237 40.9661L96.2859 40.1396L100.111 39.5019C100.052 39.1507 99.9295 38.8491 99.7431 38.597C99.5594 38.3445 99.326 38.1599 99.0428 38.0434C98.7623 37.9263 98.4492 37.8967 98.1035 37.9543C97.7227 38.0178 97.4089 38.1673 97.1622 38.4028C96.9178 38.6351 96.7463 38.9135 96.6477 39.2381C96.5492 39.5627 96.5285 39.8965 96.5857 40.2395L96.6776 40.7906C96.7559 41.2605 96.9034 41.6454 97.12 41.9452C97.3388 42.2419 97.6082 42.451 97.9283 42.5725C98.248 42.6913 98.6009 42.7185 98.9871 42.6541C99.2383 42.6122 99.4594 42.5393 99.6502 42.4353C99.8433 42.3281 100.002 42.1906 100.127 42.0226C100.251 41.852 100.336 41.6519 100.381 41.4223L101.348 41.5276C101.303 41.8571 101.185 42.1598 100.995 42.4358C100.805 42.7091 100.552 42.9401 100.236 43.1287C99.9204 43.3147 99.5517 43.4428 99.1304 43.513Z"/>
</mask>
<path d="M99.1304 43.513C98.5307 43.613 97.9914 43.5669 97.5124 43.3747C97.0357 43.1794 96.6399 42.8623 96.3252 42.4234C96.0128 41.9813 95.8034 41.4416 95.6971 40.8041C95.5908 40.1667 95.6133 39.5855 95.7645 39.0606C95.9179 38.5325 96.1813 38.0972 96.5544 37.7546C96.9298 37.4088 97.3985 37.1891 97.9603 37.0954C98.2844 37.0413 98.6135 37.042 98.9475 37.0973C99.2815 37.1527 99.5985 37.2803 99.8983 37.4801C100.198 37.6773 100.457 37.9615 100.678 38.3329C100.898 38.7043 101.056 39.1804 101.153 39.7611L101.221 40.1662L96.4237 40.9661L96.2859 40.1396L100.111 39.5019C100.052 39.1507 99.9295 38.8491 99.7431 38.597C99.5594 38.3445 99.326 38.1599 99.0428 38.0434C98.7623 37.9263 98.4492 37.8967 98.1035 37.9543C97.7227 38.0178 97.4089 38.1673 97.1622 38.4028C96.9178 38.6351 96.7463 38.9135 96.6477 39.2381C96.5492 39.5627 96.5285 39.8965 96.5857 40.2395L96.6776 40.7906C96.7559 41.2605 96.9034 41.6454 97.12 41.9452C97.3388 42.2419 97.6082 42.451 97.9283 42.5725C98.248 42.6913 98.6009 42.7185 98.9871 42.6541C99.2383 42.6122 99.4594 42.5393 99.6502 42.4353C99.8433 42.3281 100.002 42.1906 100.127 42.0226C100.251 41.852 100.336 41.6519 100.381 41.4223L101.348 41.5276C101.303 41.8571 101.185 42.1598 100.995 42.4358C100.805 42.7091 100.552 42.9401 100.236 43.1287C99.9204 43.3147 99.5517 43.4428 99.1304 43.513Z" fill="black"/>
<path d="M97.5124 43.3747L97.4344 43.5652L97.4358 43.5657L97.5124 43.3747ZM96.3252 42.4234L96.1571 42.5422L96.158 42.5433L96.3252 42.4234ZM95.7645 39.0606L95.5668 39.0032L95.5667 39.0036L95.7645 39.0606ZM96.5544 37.7546L96.6936 37.9062L96.6939 37.906L96.5544 37.7546ZM98.9475 37.0973L98.9812 36.8943L98.9812 36.8943L98.9475 37.0973ZM99.8983 37.4801L99.7842 37.6514L99.7851 37.652L99.8983 37.4801ZM100.678 38.3329L100.855 38.228L100.678 38.3329ZM101.221 40.1662L101.255 40.3692L101.458 40.3354L101.424 40.1324L101.221 40.1662ZM96.4237 40.9661L96.2207 41L96.2545 41.203L96.4575 41.1692L96.4237 40.9661ZM96.2859 40.1396L96.252 39.9366L96.049 39.9705L96.0828 40.1735L96.2859 40.1396ZM100.111 39.5019L100.144 39.7049L100.347 39.671L100.314 39.468L100.111 39.5019ZM99.7431 38.597L99.5766 38.7181L99.5776 38.7194L99.7431 38.597ZM99.0428 38.0434L98.9635 38.2333L98.9645 38.2337L99.0428 38.0434ZM97.1622 38.4028L97.304 38.552L97.3043 38.5517L97.1622 38.4028ZM96.6477 39.2381L96.4508 39.1783L96.6477 39.2381ZM97.12 41.9452L96.9531 42.0657L96.9543 42.0674L97.12 41.9452ZM97.9283 42.5725L97.8553 42.7649L97.8566 42.7654L97.9283 42.5725ZM99.6502 42.4353L99.7487 42.616L99.7501 42.6152L99.6502 42.4353ZM100.127 42.0226L100.292 42.1453L100.293 42.1438L100.127 42.0226ZM100.381 41.4223L100.403 41.2177L100.215 41.1972L100.179 41.3827L100.381 41.4223ZM101.348 41.5276L101.552 41.5554L101.58 41.3458L101.37 41.3229L101.348 41.5276ZM100.995 42.4358L101.164 42.5535L101.165 42.5525L100.995 42.4358ZM100.236 43.1287L100.341 43.3061L100.342 43.3054L100.236 43.1287ZM99.1304 43.513L99.0965 43.31C98.5274 43.4049 98.0272 43.3595 97.5891 43.1837L97.5124 43.3747L97.4358 43.5657C97.9556 43.7743 98.5341 43.8211 99.1642 43.716L99.1304 43.513ZM97.5124 43.3747L97.5905 43.1843C97.1512 43.0043 96.7858 42.7125 96.4925 42.3034L96.3252 42.4234L96.158 42.5433C96.4941 43.012 96.9201 43.3545 97.4344 43.5652L97.5124 43.3747ZM96.3252 42.4234L96.4933 42.3046C96.2019 41.8923 96.0023 41.383 95.9001 40.7703L95.6971 40.8041L95.4941 40.838C95.6045 41.5002 95.8236 42.0704 96.1571 42.5422L96.3252 42.4234ZM95.6971 40.8041L95.9001 40.7703C95.7979 40.1576 95.821 39.6081 95.9622 39.1176L95.7645 39.0606L95.5667 39.0036C95.4056 39.563 95.3836 40.1758 95.4941 40.838L95.6971 40.8041ZM95.7645 39.0606L95.9621 39.118C96.106 38.6229 96.3505 38.2212 96.6936 37.9062L96.5544 37.7546L96.4152 37.603C96.012 37.9732 95.7299 38.4421 95.5668 39.0032L95.7645 39.0606ZM96.5544 37.7546L96.6939 37.906C97.0365 37.5904 97.467 37.3863 97.9941 37.2984L97.9603 37.0954L97.9264 36.8924C97.3299 36.9918 96.8232 37.2272 96.415 37.6032L96.5544 37.7546ZM97.9603 37.0954L97.9941 37.2984C98.2952 37.2482 98.6015 37.2486 98.9139 37.3004L98.9475 37.0973L98.9812 36.8943C98.6255 36.8353 98.2736 36.8345 97.9264 36.8924L97.9603 37.0954ZM98.9475 37.0973L98.9139 37.3004C99.2173 37.3507 99.507 37.4667 99.7842 37.6514L99.8983 37.4801L100.012 37.3089C99.6899 37.0939 99.3458 36.9547 98.9812 36.8943L98.9475 37.0973ZM99.8983 37.4801L99.7851 37.652C100.054 37.8288 100.293 38.088 100.501 38.4379L100.678 38.3329L100.855 38.228C100.622 37.8351 100.342 37.5257 100.012 37.3082L99.8983 37.4801ZM100.678 38.3329L100.501 38.4379C100.704 38.781 100.856 39.2308 100.95 39.7949L101.153 39.7611L101.356 39.7272C101.257 39.1299 101.092 38.6276 100.855 38.228L100.678 38.3329ZM101.153 39.7611L100.95 39.7949L101.018 40.2001L101.221 40.1662L101.424 40.1324L101.356 39.7272L101.153 39.7611ZM101.221 40.1662L101.187 39.9632L96.3898 40.7631L96.4237 40.9661L96.4575 41.1692L101.255 40.3692L101.221 40.1662ZM96.4237 40.9661L96.6267 40.9323L96.4889 40.1058L96.2859 40.1396L96.0828 40.1735L96.2207 41L96.4237 40.9661ZM96.2859 40.1396L96.3197 40.3426L100.144 39.7049L100.111 39.5019L100.077 39.2988L96.252 39.9366L96.2859 40.1396ZM100.111 39.5019L100.314 39.468C100.25 39.0892 100.117 38.7562 99.9086 38.4747L99.7431 38.597L99.5776 38.7194C99.7422 38.942 99.8536 39.2123 99.9075 39.5357L100.111 39.5019ZM99.7431 38.597L99.9095 38.476C99.7039 38.1933 99.4403 37.9844 99.1212 37.853L99.0428 38.0434L98.9645 38.2337C99.2117 38.3355 99.4149 38.4957 99.5767 38.7181L99.7431 38.597ZM99.0428 38.0434L99.1221 37.8534C98.8007 37.7193 98.4476 37.6883 98.0696 37.7513L98.1035 37.9543L98.1374 38.1573C98.4509 38.1051 98.724 38.1334 98.9635 38.2333L99.0428 38.0434ZM98.1035 37.9543L98.0696 37.7513C97.6537 37.8207 97.3005 37.9863 97.0201 38.2539L97.1622 38.4028L97.3043 38.5517C97.5173 38.3483 97.7916 38.215 98.1374 38.1573L98.1035 37.9543ZM97.1622 38.4028L97.0204 38.2536C96.75 38.5106 96.5596 38.8199 96.4508 39.1783L96.6477 39.2381L96.8447 39.2979C96.933 39.0072 97.0855 38.7596 97.304 38.552L97.1622 38.4028ZM96.6477 39.2381L96.4508 39.1783C96.3428 39.534 96.3204 39.8999 96.3827 40.2734L96.5857 40.2395L96.7887 40.2057C96.7366 39.8931 96.7556 39.5914 96.8447 39.2979L96.6477 39.2381ZM96.5857 40.2395L96.3827 40.2734L96.4746 40.8244L96.6776 40.7906L96.8806 40.7567L96.7887 40.2057L96.5857 40.2395ZM96.6776 40.7906L96.4746 40.8244C96.5567 41.317 96.7134 41.7339 96.9531 42.0657L97.12 41.9452L97.2868 41.8247C97.0934 41.5569 96.9552 41.2041 96.8806 40.7567L96.6776 40.7906ZM97.12 41.9452L96.9543 42.0674C97.1947 42.3933 97.4954 42.6283 97.8553 42.7649L97.9283 42.5725L98.0014 42.3801C97.7211 42.2736 97.4828 42.0904 97.2856 41.823L97.12 41.9452ZM97.9283 42.5725L97.8566 42.7654C98.2147 42.8985 98.6046 42.9265 99.021 42.8571L98.9871 42.6541L98.9533 42.4511C98.5972 42.5105 98.2812 42.4841 98 42.3796L97.9283 42.5725ZM98.9871 42.6541L99.021 42.8571C99.291 42.8121 99.5346 42.7327 99.7487 42.616L99.6502 42.4353L99.5517 42.2545C99.3842 42.3458 99.1856 42.4123 98.9533 42.4511L98.9871 42.6541ZM99.6502 42.4353L99.7501 42.6152C99.9674 42.4947 100.149 42.3381 100.292 42.1453L100.127 42.0226L99.9617 41.8999C99.8554 42.043 99.7193 42.1615 99.5504 42.2553L99.6502 42.4353ZM100.127 42.0226L100.293 42.1438C100.437 41.9464 100.533 41.7177 100.583 41.4619L100.381 41.4223L100.179 41.3827C100.139 41.5861 100.065 41.7576 99.9605 41.9015L100.127 42.0226ZM100.381 41.4223L100.359 41.6269L101.326 41.7322L101.348 41.5276L101.37 41.3229L100.403 41.2177L100.381 41.4223ZM101.348 41.5276L101.144 41.4997C101.103 41.7971 100.998 42.0695 100.826 42.3191L100.995 42.4358L101.165 42.5525C101.373 42.2502 101.502 41.9171 101.552 41.5554L101.348 41.5276ZM100.995 42.4358L100.826 42.3182C100.654 42.5651 100.424 42.7768 100.131 42.952L100.236 43.1287L100.342 43.3054C100.68 43.1033 100.956 42.8531 101.164 42.5535L100.995 42.4358ZM100.236 43.1287L100.132 42.9513C99.841 43.1225 99.497 43.2432 99.0965 43.31L99.1304 43.513L99.1642 43.716C99.6064 43.6423 99.9998 43.5068 100.341 43.3061L100.236 43.1287Z" fill="black" mask="url(#path-21-outside-9_263_256)"/>
<mask id="path-23-outside-10_263_256" maskUnits="userSpaceOnUse" x="102.257" y="35.5896" width="7.2752" height="8.23965" fill="black">
<rect fill="white" x="102.257" y="35.5896" width="7.2752" height="8.23965"/>
<path d="M107.272 40.082L107.141 36.3547L108.11 36.3208L108.33 42.6261L107.362 42.6599L107.324 41.5926L107.259 41.5949C107.122 41.9203 106.902 42.2006 106.598 42.4359C106.293 42.6685 105.903 42.7931 105.427 42.8098C105.033 42.8235 104.68 42.7496 104.367 42.5879C104.054 42.4235 103.804 42.1692 103.617 41.825C103.43 41.4781 103.326 41.0364 103.308 40.5001L103.168 36.4936L104.136 36.4597L104.274 40.4005C104.29 40.8603 104.432 41.2225 104.698 41.4872C104.968 41.7517 105.304 41.877 105.706 41.8629C105.947 41.8545 106.19 41.7844 106.435 41.6525C106.682 41.5206 106.886 41.3244 107.047 41.0639C107.21 40.8034 107.285 40.4761 107.272 40.082Z"/>
</mask>
<path d="M107.272 40.082L107.141 36.3547L108.11 36.3208L108.33 42.6261L107.362 42.6599L107.324 41.5926L107.259 41.5949C107.122 41.9203 106.902 42.2006 106.598 42.4359C106.293 42.6685 105.903 42.7931 105.427 42.8098C105.033 42.8235 104.68 42.7496 104.367 42.5879C104.054 42.4235 103.804 42.1692 103.617 41.825C103.43 41.4781 103.326 41.0364 103.308 40.5001L103.168 36.4936L104.136 36.4597L104.274 40.4005C104.29 40.8603 104.432 41.2225 104.698 41.4872C104.968 41.7517 105.304 41.877 105.706 41.8629C105.947 41.8545 106.19 41.7844 106.435 41.6525C106.682 41.5206 106.886 41.3244 107.047 41.0639C107.21 40.8034 107.285 40.4761 107.272 40.082Z" fill="black"/>
<path d="M107.141 36.3547L107.134 36.149L106.928 36.1562L106.936 36.3619L107.141 36.3547ZM108.11 36.3208L108.316 36.3136L108.309 36.1079L108.103 36.1151L108.11 36.3208ZM108.33 42.6261L108.338 42.8318L108.543 42.8246L108.536 42.6189L108.33 42.6261ZM107.362 42.6599L107.156 42.6671L107.163 42.8728L107.369 42.8656L107.362 42.6599ZM107.324 41.5926L107.53 41.5855L107.523 41.3798L107.317 41.387L107.324 41.5926ZM107.259 41.5949L107.251 41.3892L107.12 41.3938L107.069 41.5153L107.259 41.5949ZM106.598 42.4359L106.723 42.5995L106.724 42.5987L106.598 42.4359ZM104.367 42.5879L104.271 42.7701L104.272 42.7707L104.367 42.5879ZM103.617 41.825L103.436 41.9228L103.436 41.9234L103.617 41.825ZM103.168 36.4936L103.16 36.2879L102.955 36.2951L102.962 36.5008L103.168 36.4936ZM104.136 36.4597L104.342 36.4525L104.335 36.2468L104.129 36.254L104.136 36.4597ZM104.698 41.4872L104.554 41.6333L104.554 41.634L104.698 41.4872ZM106.435 41.6525L106.338 41.4709L106.337 41.4713L106.435 41.6525ZM107.047 41.0639L106.873 40.9545L106.872 40.9558L107.047 41.0639ZM107.272 40.082L107.477 40.0748L107.347 36.3475L107.141 36.3547L106.936 36.3619L107.066 40.0892L107.272 40.082ZM107.141 36.3547L107.148 36.5604L108.117 36.5265L108.11 36.3208L108.103 36.1151L107.134 36.149L107.141 36.3547ZM108.11 36.3208L107.904 36.328L108.125 42.6333L108.33 42.6261L108.536 42.6189L108.316 36.3136L108.11 36.3208ZM108.33 42.6261L108.323 42.4204L107.354 42.4542L107.362 42.6599L107.369 42.8656L108.338 42.8318L108.33 42.6261ZM107.362 42.6599L107.567 42.6528L107.53 41.5855L107.324 41.5926L107.119 41.5998L107.156 42.6671L107.362 42.6599ZM107.324 41.5926L107.317 41.387L107.251 41.3892L107.259 41.5949L107.266 41.8006L107.332 41.7983L107.324 41.5926ZM107.259 41.5949L107.069 41.5153C106.947 41.805 106.75 42.0576 106.472 42.2732L106.598 42.4359L106.724 42.5987C107.053 42.3437 107.297 42.0356 107.448 41.6746L107.259 41.5949ZM106.598 42.4359L106.473 42.2724C106.21 42.4733 105.864 42.5886 105.42 42.6041L105.427 42.8098L105.434 43.0155C105.943 42.9977 106.377 42.8637 106.723 42.5995L106.598 42.4359ZM105.427 42.8098L105.42 42.6041C105.057 42.6168 104.739 42.5486 104.462 42.4051L104.367 42.5879L104.272 42.7707C104.62 42.9505 105.009 43.0303 105.434 43.0155L105.427 42.8098ZM104.367 42.5879L104.463 42.4057C104.19 42.2623 103.968 42.0391 103.798 41.7266L103.617 41.825L103.436 41.9234C103.641 42.2992 103.919 42.5847 104.271 42.77L104.367 42.5879ZM103.617 41.825L103.798 41.7271C103.63 41.4163 103.531 41.0084 103.513 40.4929L103.308 40.5001L103.102 40.5072C103.121 41.0645 103.229 41.5398 103.436 41.9228L103.617 41.825ZM103.308 40.5001L103.513 40.4929L103.373 36.4864L103.168 36.4936L102.962 36.5008L103.102 40.5072L103.308 40.5001ZM103.168 36.4936L103.175 36.6993L104.144 36.6654L104.136 36.4597L104.129 36.254L103.16 36.2879L103.168 36.4936ZM104.136 36.4597L103.931 36.4669L104.068 40.4077L104.274 40.4005L104.48 40.3933L104.342 36.4525L104.136 36.4597ZM104.274 40.4005L104.068 40.4077C104.086 40.9075 104.242 41.3238 104.554 41.6333L104.698 41.4872L104.843 41.341C104.622 41.1211 104.495 40.8131 104.48 40.3933L104.274 40.4005ZM104.698 41.4872L104.554 41.634C104.867 41.941 105.259 42.0845 105.713 42.0686L105.706 41.8629L105.699 41.6572C105.349 41.6695 105.069 41.5625 104.843 41.3403L104.698 41.4872ZM105.706 41.8629L105.713 42.0686C105.99 42.0589 106.264 41.9783 106.532 41.8337L106.435 41.6525L106.337 41.4713C106.116 41.5905 105.904 41.6501 105.699 41.6572L105.706 41.8629ZM106.435 41.6525L106.531 41.8341C106.814 41.6835 107.044 41.4606 107.222 41.1721L107.047 41.0639L106.872 40.9558C106.728 41.1882 106.55 41.3576 106.338 41.4709L106.435 41.6525ZM107.047 41.0639L107.221 41.1733C107.412 40.8693 107.492 40.4985 107.477 40.0748L107.272 40.082L107.066 40.0892C107.079 40.4537 107.009 40.7375 106.873 40.9545L107.047 41.0639Z" fill="black" mask="url(#path-23-outside-10_263_256)"/>
<mask id="path-25-outside-11_263_256" maskUnits="userSpaceOnUse" x="109.439" y="33.6911" width="4.65704" height="10.2442" fill="black">
<rect fill="white" x="109.439" y="33.6911" width="4.65704" height="10.2442"/>
<path d="M113.549 36.6179L113.494 37.4375L110.232 37.2198L110.286 36.4001L113.549 36.6179ZM111.338 34.9554L112.305 35.02L111.905 41.02C111.886 41.2932 111.912 41.5007 111.983 41.6426C112.056 41.782 112.153 41.8791 112.276 41.9339C112.401 41.9862 112.535 42.0171 112.677 42.0266C112.784 42.0337 112.872 42.0341 112.941 42.0277C113.01 42.0186 113.065 42.0113 113.107 42.0058L113.246 42.8878C113.178 42.908 113.085 42.9265 112.966 42.9433C112.847 42.9628 112.697 42.9665 112.517 42.9544C112.243 42.9362 111.98 42.8596 111.725 42.7246C111.473 42.5898 111.269 42.3964 111.113 42.1445C110.96 41.8928 110.896 41.5838 110.92 41.2177L111.338 34.9554Z"/>
</mask>
<path d="M113.549 36.6179L113.494 37.4375L110.232 37.2198L110.286 36.4001L113.549 36.6179ZM111.338 34.9554L112.305 35.02L111.905 41.02C111.886 41.2932 111.912 41.5007 111.983 41.6426C112.056 41.782 112.153 41.8791 112.276 41.9339C112.401 41.9862 112.535 42.0171 112.677 42.0266C112.784 42.0337 112.872 42.0341 112.941 42.0277C113.01 42.0186 113.065 42.0113 113.107 42.0058L113.246 42.8878C113.178 42.908 113.085 42.9265 112.966 42.9433C112.847 42.9628 112.697 42.9665 112.517 42.9544C112.243 42.9362 111.98 42.8596 111.725 42.7246C111.473 42.5898 111.269 42.3964 111.113 42.1445C110.96 41.8928 110.896 41.5838 110.92 41.2177L111.338 34.9554Z" fill="black"/>
<path d="M113.549 36.6179L113.754 36.6316L113.768 36.4262L113.562 36.4125L113.549 36.6179ZM113.494 37.4375L113.48 37.6429L113.686 37.6566L113.699 37.4512L113.494 37.4375ZM110.232 37.2198L110.026 37.2061L110.013 37.4115L110.218 37.4252L110.232 37.2198ZM110.286 36.4001L110.3 36.1948L110.095 36.1811L110.081 36.3864L110.286 36.4001ZM111.338 34.9554L111.352 34.75L111.146 34.7363L111.133 34.9417L111.338 34.9554ZM112.305 35.02L112.511 35.0337L112.524 34.8283L112.319 34.8146L112.305 35.02ZM111.983 41.6426L111.798 41.7339L111.8 41.7382L111.983 41.6426ZM112.276 41.9339L112.192 42.1219L112.197 42.1239L112.276 41.9339ZM112.941 42.0277L112.96 42.2328L112.968 42.2318L112.941 42.0277ZM113.107 42.0058L113.31 41.9739L113.279 41.7756L113.08 41.8018L113.107 42.0058ZM113.246 42.8878L113.305 43.0849L113.477 43.0332L113.449 42.8558L113.246 42.8878ZM112.966 42.9433L112.937 42.7394L112.933 42.7401L112.966 42.9433ZM111.725 42.7246L111.628 42.906L111.629 42.9064L111.725 42.7246ZM111.113 42.1445L110.938 42.2516L110.938 42.2529L111.113 42.1445ZM113.549 36.6179L113.343 36.6042L113.289 37.4238L113.494 37.4375L113.699 37.4512L113.754 36.6316L113.549 36.6179ZM113.494 37.4375L113.508 37.2322L110.245 37.0145L110.232 37.2198L110.218 37.4252L113.48 37.6429L113.494 37.4375ZM110.232 37.2198L110.437 37.2335L110.492 36.4138L110.286 36.4001L110.081 36.3864L110.026 37.2061L110.232 37.2198ZM110.286 36.4001L110.273 36.6055L113.535 36.8232L113.549 36.6179L113.562 36.4125L110.3 36.1948L110.286 36.4001ZM111.338 34.9554L111.324 35.1608L112.291 35.2253L112.305 35.02L112.319 34.8146L111.352 34.75L111.338 34.9554ZM112.305 35.02L112.1 35.0062L111.699 41.0063L111.905 41.02L112.11 41.0337L112.511 35.0337L112.305 35.02ZM111.905 41.02L111.699 41.0063C111.68 41.2926 111.704 41.5436 111.798 41.7338L111.983 41.6426L112.167 41.5515C112.121 41.4579 112.093 41.2938 112.11 41.0337L111.905 41.02ZM111.983 41.6426L111.8 41.7382C111.891 41.9112 112.02 42.045 112.192 42.1218L112.276 41.9339L112.36 41.746C112.287 41.7132 112.22 41.6528 112.165 41.5471L111.983 41.6426ZM112.276 41.9339L112.197 42.1239C112.344 42.1853 112.5 42.221 112.664 42.2319L112.677 42.0266L112.691 41.8212C112.57 41.8132 112.459 41.7871 112.355 41.7439L112.276 41.9339ZM112.677 42.0266L112.664 42.2319C112.776 42.2394 112.876 42.2404 112.96 42.2326L112.941 42.0277L112.922 41.8227C112.868 41.8277 112.792 41.8279 112.691 41.8212L112.677 42.0266ZM112.941 42.0277L112.968 42.2318C113.037 42.2227 113.092 42.2154 113.134 42.2099L113.107 42.0058L113.08 41.8018C113.038 41.8072 112.983 41.8145 112.914 41.8236L112.941 42.0277ZM113.107 42.0058L112.904 42.0378L113.042 42.9198L113.246 42.8878L113.449 42.8558L113.31 41.9739L113.107 42.0058ZM113.246 42.8878L113.186 42.6907C113.134 42.7065 113.052 42.7233 112.937 42.7395L112.966 42.9433L112.995 43.1471C113.118 43.1298 113.223 43.1095 113.305 43.0849L113.246 42.8878ZM112.966 42.9433L112.933 42.7401C112.835 42.7562 112.702 42.7605 112.53 42.7491L112.517 42.9544L112.503 43.1598C112.692 43.1724 112.859 43.1693 112.999 43.1464L112.966 42.9433ZM112.517 42.9544L112.53 42.7491C112.288 42.7329 112.052 42.6649 111.822 42.5428L111.725 42.7246L111.629 42.9064C111.907 43.0543 112.199 43.1395 112.503 43.1598L112.517 42.9544ZM111.725 42.7246L111.822 42.5432C111.604 42.4261 111.426 42.2585 111.288 42.0361L111.113 42.1445L110.938 42.2529C111.113 42.5344 111.343 42.7535 111.628 42.906L111.725 42.7246ZM111.113 42.1445L111.289 42.0374C111.163 41.83 111.103 41.5656 111.125 41.2314L110.92 41.2177L110.715 41.204C110.688 41.602 110.757 41.9556 110.938 42.2516L111.113 42.1445ZM110.92 41.2177L111.125 41.2314L111.543 34.9691L111.338 34.9554L111.133 34.9417L110.715 41.204L110.92 41.2177Z" fill="black" mask="url(#path-25-outside-11_263_256)"/>
<mask id="path-27-outside-12_263_256" maskUnits="userSpaceOnUse" x="113.266" y="35.9982" width="6.09773" height="8.63548" fill="black">
<rect fill="white" x="113.266" y="35.9982" width="6.09773" height="8.63548"/>
<path d="M114.288 43.053L115.194 36.8094L116.121 36.944L115.984 37.887L116.049 37.8965C116.208 37.6041 116.45 37.3833 116.776 37.2342C117.102 37.0851 117.452 37.0377 117.826 37.092C117.897 37.1022 117.985 37.1163 118.09 37.1344C118.195 37.1524 118.275 37.1681 118.328 37.1814L118.186 38.157C118.155 38.1441 118.082 38.1211 117.968 38.0879C117.857 38.0524 117.738 38.0254 117.61 38.0069C117.307 37.9629 117.027 37.9872 116.77 38.0799C116.516 38.1704 116.304 38.3166 116.133 38.5188C115.966 38.7186 115.862 38.9594 115.821 39.2413L115.247 43.1923L114.288 43.053Z"/>
</mask>
<path d="M114.288 43.053L115.194 36.8094L116.121 36.944L115.984 37.887L116.049 37.8965C116.208 37.6041 116.45 37.3833 116.776 37.2342C117.102 37.0851 117.452 37.0377 117.826 37.092C117.897 37.1022 117.985 37.1163 118.09 37.1344C118.195 37.1524 118.275 37.1681 118.328 37.1814L118.186 38.157C118.155 38.1441 118.082 38.1211 117.968 38.0879C117.857 38.0524 117.738 38.0254 117.61 38.0069C117.307 37.9629 117.027 37.9872 116.77 38.0799C116.516 38.1704 116.304 38.3166 116.133 38.5188C115.966 38.7186 115.862 38.9594 115.821 39.2413L115.247 43.1923L114.288 43.053Z" fill="black"/>
<path d="M114.288 43.053L114.084 43.0234L114.054 43.2271L114.258 43.2567L114.288 43.053ZM115.194 36.8094L115.224 36.6057L115.02 36.5761L114.991 36.7798L115.194 36.8094ZM116.121 36.944L116.325 36.9735L116.354 36.7699L116.151 36.7403L116.121 36.944ZM115.984 37.887L115.781 37.8574L115.751 38.0611L115.955 38.0907L115.984 37.887ZM116.049 37.8965L116.02 38.1001L116.162 38.1208L116.23 37.9946L116.049 37.8965ZM116.776 37.2342L116.691 37.047L116.691 37.047L116.776 37.2342ZM118.328 37.1814L118.532 37.211L118.558 37.0267L118.378 36.9817L118.328 37.1814ZM118.186 38.157L118.108 38.3474L118.352 38.4474L118.39 38.1866L118.186 38.157ZM117.968 38.0879L117.905 38.284L117.911 38.2856L117.968 38.0879ZM116.77 38.0799L116.839 38.2738L116.84 38.2735L116.77 38.0799ZM116.133 38.5188L115.976 38.3861L115.975 38.3866L116.133 38.5188ZM115.247 43.1923L115.217 43.396L115.421 43.4256L115.451 43.2219L115.247 43.1923ZM114.288 43.053L114.491 43.0826L115.398 36.839L115.194 36.8094L114.991 36.7798L114.084 43.0234L114.288 43.053ZM115.194 36.8094L115.165 37.0131L116.092 37.1477L116.121 36.944L116.151 36.7403L115.224 36.6057L115.194 36.8094ZM116.121 36.944L115.917 36.9144L115.781 37.8574L115.984 37.887L116.188 37.9166L116.325 36.9735L116.121 36.944ZM115.984 37.887L115.955 38.0907L116.02 38.1001L116.049 37.8965L116.079 37.6928L116.014 37.6833L115.984 37.887ZM116.049 37.8965L116.23 37.9946C116.366 37.7446 116.573 37.5534 116.862 37.4214L116.776 37.2342L116.691 37.047C116.327 37.2132 116.05 37.4636 115.868 37.7983L116.049 37.8965ZM116.776 37.2342L116.862 37.4214C117.15 37.2896 117.46 37.2467 117.797 37.2956L117.826 37.092L117.856 36.8883C117.445 36.8286 117.055 36.8805 116.691 37.047L116.776 37.2342ZM117.826 37.092L117.797 37.2956C117.865 37.3055 117.951 37.3194 118.055 37.3373L118.09 37.1344L118.125 36.9315C118.018 36.9133 117.929 36.8989 117.856 36.8883L117.826 37.092ZM118.09 37.1344L118.055 37.3373C118.159 37.3551 118.232 37.3697 118.278 37.3811L118.328 37.1814L118.378 36.9817C118.317 36.9665 118.231 36.9498 118.125 36.9315L118.09 37.1344ZM118.328 37.1814L118.124 37.1518L117.983 38.1274L118.186 38.157L118.39 38.1866L118.532 37.211L118.328 37.1814ZM118.186 38.157L118.264 37.9665C118.221 37.9487 118.137 37.9226 118.026 37.8903L117.968 38.0879L117.911 38.2856C118.028 38.3196 118.089 38.3396 118.108 38.3474L118.186 38.157ZM117.968 38.0879L118.031 37.8919C117.908 37.8526 117.777 37.8232 117.64 37.8033L117.61 38.0069L117.581 38.2106C117.698 38.2277 117.806 38.2523 117.905 38.284L117.968 38.0879ZM117.61 38.0069L117.64 37.8033C117.307 37.7549 116.992 37.7808 116.7 37.8863L116.77 38.0799L116.84 38.2735C117.061 38.1936 117.307 38.1708 117.581 38.2106L117.61 38.0069ZM116.77 38.0799L116.701 37.886C116.413 37.9884 116.17 38.1555 115.976 38.3861L116.133 38.5188L116.291 38.6515C116.437 38.4777 116.619 38.3523 116.839 38.2738L116.77 38.0799ZM116.133 38.5188L115.975 38.3866C115.781 38.6184 115.663 38.8957 115.617 39.2117L115.821 39.2413L116.024 39.2708C116.06 39.0232 116.15 38.8188 116.291 38.6509L116.133 38.5188ZM115.821 39.2413L115.617 39.2117L115.043 43.1627L115.247 43.1923L115.451 43.2219L116.024 39.2708L115.821 39.2413ZM115.247 43.1923L115.277 42.9886L114.317 42.8493L114.288 43.053L114.258 43.2567L115.217 43.396L115.247 43.1923Z" fill="black" mask="url(#path-27-outside-12_263_256)"/>
<mask id="path-29-outside-13_263_256" maskUnits="userSpaceOnUse" x="117.65" y="36.7428" width="7.77464" height="9.22465" fill="black">
<rect fill="white" x="117.65" y="36.7428" width="7.77464" height="9.22465"/>
<path d="M120.519 44.3447C120.132 44.2469 119.798 44.0852 119.519 43.8594C119.241 43.631 119.044 43.354 118.928 43.0283C118.813 42.7 118.806 42.3367 118.906 41.9384C118.995 41.5879 119.136 41.3213 119.329 41.1384C119.522 40.9528 119.75 40.8268 120.013 40.7603C120.275 40.6938 120.554 40.6651 120.848 40.6744C121.145 40.6817 121.441 40.7026 121.734 40.7371C122.118 40.7831 122.428 40.8232 122.666 40.8576C122.906 40.89 123.087 40.8891 123.208 40.8548C123.333 40.8212 123.414 40.7287 123.452 40.5774L123.46 40.5455C123.559 40.1526 123.529 39.8201 123.369 39.5481C123.211 39.2768 122.916 39.0866 122.483 38.9774C122.035 38.8642 121.658 38.8737 121.353 39.0058C121.049 39.138 120.817 39.3025 120.657 39.4995L119.845 38.9558C120.098 38.6242 120.384 38.3884 120.702 38.2483C121.023 38.1062 121.352 38.0339 121.688 38.0313C122.028 38.0267 122.352 38.0632 122.66 38.1409C122.857 38.1905 123.077 38.2713 123.319 38.3834C123.566 38.4935 123.79 38.6504 123.993 38.8541C124.198 39.0584 124.344 39.3254 124.43 39.655C124.517 39.9846 124.499 40.3923 124.376 40.8782L123.359 44.9087L122.419 44.6716L122.628 43.8432L122.58 43.8311C122.483 43.9478 122.341 44.0631 122.154 44.1769C121.967 44.2907 121.737 44.3696 121.463 44.4135C121.19 44.4574 120.875 44.4345 120.519 44.3447ZM120.876 43.5366C121.247 43.6304 121.579 43.6364 121.871 43.5547C122.165 43.4736 122.406 43.334 122.595 43.1358C122.786 42.9383 122.914 42.7121 122.978 42.4572L123.195 41.5969C123.143 41.6347 123.044 41.6564 122.899 41.6621C122.757 41.6657 122.594 41.6601 122.412 41.6451C122.233 41.6281 122.058 41.6094 121.888 41.5892C121.721 41.5669 121.586 41.5497 121.482 41.5375C121.229 41.5077 120.988 41.5019 120.757 41.52C120.53 41.5361 120.334 41.5981 120.168 41.706C120.006 41.8119 119.895 41.9844 119.834 42.2233C119.752 42.5499 119.81 42.8273 120.01 43.0555C120.213 43.2818 120.501 43.4421 120.876 43.5366Z"/>
</mask>
<path d="M120.519 44.3447C120.132 44.2469 119.798 44.0852 119.519 43.8594C119.241 43.631 119.044 43.354 118.928 43.0283C118.813 42.7 118.806 42.3367 118.906 41.9384C118.995 41.5879 119.136 41.3213 119.329 41.1384C119.522 40.9528 119.75 40.8268 120.013 40.7603C120.275 40.6938 120.554 40.6651 120.848 40.6744C121.145 40.6817 121.441 40.7026 121.734 40.7371C122.118 40.7831 122.428 40.8232 122.666 40.8576C122.906 40.89 123.087 40.8891 123.208 40.8548C123.333 40.8212 123.414 40.7287 123.452 40.5774L123.46 40.5455C123.559 40.1526 123.529 39.8201 123.369 39.5481C123.211 39.2768 122.916 39.0866 122.483 38.9774C122.035 38.8642 121.658 38.8737 121.353 39.0058C121.049 39.138 120.817 39.3025 120.657 39.4995L119.845 38.9558C120.098 38.6242 120.384 38.3884 120.702 38.2483C121.023 38.1062 121.352 38.0339 121.688 38.0313C122.028 38.0267 122.352 38.0632 122.66 38.1409C122.857 38.1905 123.077 38.2713 123.319 38.3834C123.566 38.4935 123.79 38.6504 123.993 38.8541C124.198 39.0584 124.344 39.3254 124.43 39.655C124.517 39.9846 124.499 40.3923 124.376 40.8782L123.359 44.9087L122.419 44.6716L122.628 43.8432L122.58 43.8311C122.483 43.9478 122.341 44.0631 122.154 44.1769C121.967 44.2907 121.737 44.3696 121.463 44.4135C121.19 44.4574 120.875 44.4345 120.519 44.3447ZM120.876 43.5366C121.247 43.6304 121.579 43.6364 121.871 43.5547C122.165 43.4736 122.406 43.334 122.595 43.1358C122.786 42.9383 122.914 42.7121 122.978 42.4572L123.195 41.5969C123.143 41.6347 123.044 41.6564 122.899 41.6621C122.757 41.6657 122.594 41.6601 122.412 41.6451C122.233 41.6281 122.058 41.6094 121.888 41.5892C121.721 41.5669 121.586 41.5497 121.482 41.5375C121.229 41.5077 120.988 41.5019 120.757 41.52C120.53 41.5361 120.334 41.5981 120.168 41.706C120.006 41.8119 119.895 41.9844 119.834 42.2233C119.752 42.5499 119.81 42.8273 120.01 43.0555C120.213 43.2818 120.501 43.4421 120.876 43.5366Z" fill="black"/>
<path d="M119.519 43.8594L119.388 44.0186L119.39 44.0195L119.519 43.8594ZM118.928 43.0283L118.734 43.0963L118.734 43.0971L118.928 43.0283ZM119.329 41.1384L119.47 41.2878L119.471 41.287L119.329 41.1384ZM120.848 40.6744L120.841 40.8801L120.843 40.8802L120.848 40.6744ZM121.734 40.7371L121.759 40.5327L121.758 40.5327L121.734 40.7371ZM122.666 40.8576L122.636 41.0613L122.638 41.0616L122.666 40.8576ZM123.208 40.8548L123.155 40.6561L123.153 40.6567L123.208 40.8548ZM123.369 39.5481L123.191 39.6514L123.191 39.6525L123.369 39.5481ZM121.353 39.0058L121.435 39.1946L121.353 39.0058ZM120.657 39.4995L120.543 39.6705L120.699 39.775L120.817 39.6292L120.657 39.4995ZM119.845 38.9558L119.682 38.8309L119.549 39.0049L119.731 39.1268L119.845 38.9558ZM120.702 38.2483L120.785 38.4366L120.785 38.4365L120.702 38.2483ZM121.688 38.0313L121.69 38.2371L121.691 38.2371L121.688 38.0313ZM123.319 38.3834L123.233 38.5703L123.235 38.5713L123.319 38.3834ZM123.993 38.8541L123.847 38.9993L123.848 39L123.993 38.8541ZM124.43 39.655L124.231 39.7071L124.231 39.7071L124.43 39.655ZM123.359 44.9087L123.309 45.1083L123.508 45.1586L123.559 44.9591L123.359 44.9087ZM122.419 44.6716L122.22 44.6212L122.169 44.8208L122.369 44.8712L122.419 44.6716ZM122.628 43.8432L122.828 43.8935L122.878 43.694L122.679 43.6436L122.628 43.8432ZM122.58 43.8311L122.631 43.6316L122.505 43.5999L122.422 43.6994L122.58 43.8311ZM122.154 44.1769L122.261 44.3527L122.261 44.3527L122.154 44.1769ZM121.463 44.4135L121.431 44.2103L121.463 44.4135ZM121.871 43.5547L121.816 43.3562L121.815 43.3565L121.871 43.5547ZM122.595 43.1358L122.447 42.9927L122.446 42.994L122.595 43.1358ZM123.195 41.5969L123.394 41.6473L123.534 41.0961L123.074 41.4305L123.195 41.5969ZM122.899 41.6621L122.904 41.8678L122.907 41.8677L122.899 41.6621ZM122.412 41.6451L122.392 41.85L122.395 41.8502L122.412 41.6451ZM121.888 41.5892L121.861 41.7932L121.864 41.7935L121.888 41.5892ZM121.482 41.5375L121.457 41.7419L121.458 41.7419L121.482 41.5375ZM120.757 41.52L120.772 41.7253L120.773 41.7252L120.757 41.52ZM120.168 41.706L120.056 41.5336L120.056 41.5337L120.168 41.706ZM120.01 43.0555L119.855 43.191L119.857 43.1929L120.01 43.0555ZM120.519 44.3447L120.57 44.1452C120.207 44.0538 119.902 43.9044 119.648 43.6994L119.519 43.8594L119.39 44.0195C119.694 44.266 120.056 44.4401 120.469 44.5443L120.519 44.3447ZM119.519 43.8594L119.65 43.7003C119.399 43.4946 119.224 43.2483 119.122 42.9595L118.928 43.0283L118.734 43.0971C118.863 43.4597 119.082 43.7674 119.388 44.0186L119.519 43.8594ZM118.928 43.0283L119.122 42.9604C119.023 42.6765 119.014 42.3551 119.106 41.9888L118.906 41.9384L118.707 41.8881C118.598 42.3182 118.603 42.7234 118.734 43.0963L118.928 43.0283ZM118.906 41.9384L119.106 41.9888C119.188 41.663 119.314 41.4358 119.47 41.2878L119.329 41.1384L119.187 40.989C118.957 41.2067 118.802 41.5129 118.707 41.8881L118.906 41.9384ZM119.329 41.1384L119.471 41.287C119.639 41.1263 119.835 41.0177 120.063 40.9598L120.013 40.7603L119.962 40.5608C119.666 40.6359 119.406 40.7793 119.186 40.9897L119.329 41.1384ZM120.013 40.7603L120.063 40.9598C120.306 40.8984 120.565 40.8714 120.841 40.8801L120.848 40.6744L120.854 40.4687C120.543 40.4589 120.245 40.4891 119.962 40.5608L120.013 40.7603ZM120.848 40.6744L120.843 40.8802C121.134 40.8873 121.423 40.9077 121.71 40.9415L121.734 40.7371L121.758 40.5327C121.459 40.4974 121.157 40.4761 120.853 40.4686L120.848 40.6744ZM121.734 40.7371L121.71 40.9414C122.093 40.9873 122.401 41.0273 122.636 41.0613L122.666 40.8576L122.695 40.6539C122.456 40.6192 122.143 40.5788 121.759 40.5327L121.734 40.7371ZM122.666 40.8576L122.638 41.0616C122.885 41.0949 123.101 41.099 123.264 41.0529L123.208 40.8548L123.153 40.6567C123.073 40.6792 122.926 40.6851 122.693 40.6536L122.666 40.8576ZM123.208 40.8548L123.262 41.0535C123.475 40.996 123.6 40.8331 123.652 40.6277L123.452 40.5774L123.253 40.527C123.228 40.6243 123.191 40.6464 123.155 40.6561L123.208 40.8548ZM123.452 40.5774L123.652 40.6277L123.66 40.5959L123.46 40.5455L123.261 40.4952L123.253 40.527L123.452 40.5774ZM123.46 40.5455L123.66 40.5959C123.768 40.166 123.741 39.7745 123.546 39.4437L123.369 39.5481L123.191 39.6525C123.317 39.8656 123.35 40.1391 123.261 40.4952L123.46 40.5455ZM123.369 39.5481L123.547 39.4448C123.351 39.1083 122.997 38.8947 122.534 38.7778L122.483 38.9774L122.433 39.1769C122.835 39.2784 123.071 39.4453 123.191 39.6514L123.369 39.5481ZM122.483 38.9774L122.534 38.7778C122.058 38.6578 121.631 38.6608 121.272 38.817L121.353 39.0058L121.435 39.1946C121.685 39.0865 122.011 39.0706 122.433 39.1769L122.483 38.9774ZM121.353 39.0058L121.272 38.817C120.946 38.9584 120.683 39.1405 120.497 39.3697L120.657 39.4995L120.817 39.6292C120.95 39.4646 121.152 39.3176 121.435 39.1946L121.353 39.0058ZM120.657 39.4995L120.772 39.3284L119.96 38.7848L119.845 38.9558L119.731 39.1268L120.543 39.6705L120.657 39.4995ZM119.845 38.9558L120.009 39.0807C120.245 38.7712 120.504 38.5602 120.785 38.4366L120.702 38.2483L120.619 38.06C120.263 38.2167 119.952 38.4773 119.682 38.8309L119.845 38.9558ZM120.702 38.2483L120.785 38.4365C121.081 38.3053 121.383 38.2394 121.69 38.2371L121.688 38.0313L121.687 37.8254C121.321 37.8283 120.964 37.9071 120.618 38.0601L120.702 38.2483ZM121.688 38.0313L121.691 38.2371C122.014 38.2327 122.321 38.2675 122.61 38.3405L122.66 38.1409L122.711 37.9414C122.384 37.859 122.042 37.8206 121.686 37.8255L121.688 38.0313ZM122.66 38.1409L122.61 38.3405C122.791 38.3861 122.998 38.462 123.233 38.5703L123.319 38.3834L123.406 38.1966C123.155 38.0807 122.923 37.9948 122.711 37.9414L122.66 38.1409ZM123.319 38.3834L123.235 38.5713C123.457 38.6704 123.661 38.8124 123.847 38.9993L123.993 38.8541L124.139 38.7089C123.919 38.4885 123.674 38.3166 123.403 38.1955L123.319 38.3834ZM123.993 38.8541L123.848 39C124.023 39.1742 124.153 39.4067 124.231 39.7071L124.43 39.655L124.63 39.6029C124.536 39.244 124.374 38.9426 124.138 38.7082L123.993 38.8541ZM124.43 39.655L124.231 39.7071C124.306 39.991 124.294 40.3609 124.176 40.8279L124.376 40.8782L124.576 40.9286C124.703 40.4237 124.728 39.9782 124.63 39.6029L124.43 39.655ZM124.376 40.8782L124.176 40.8279L123.16 44.8584L123.359 44.9087L123.559 44.9591L124.576 40.9286L124.376 40.8782ZM123.359 44.9087L123.41 44.7091L122.47 44.472L122.419 44.6716L122.369 44.8712L123.309 45.1083L123.359 44.9087ZM122.419 44.6716L122.619 44.7219L122.828 43.8935L122.628 43.8432L122.429 43.7928L122.22 44.6212L122.419 44.6716ZM122.628 43.8432L122.679 43.6436L122.631 43.6316L122.58 43.8311L122.53 44.0307L122.578 44.0428L122.628 43.8432ZM122.58 43.8311L122.422 43.6994C122.344 43.7929 122.223 43.8943 122.047 44.0011L122.154 44.1769L122.261 44.3527C122.46 44.2318 122.622 44.1028 122.739 43.9629L122.58 43.8311ZM122.154 44.1769L122.047 44.0011C121.888 44.0979 121.685 44.1695 121.431 44.2103L121.463 44.4135L121.496 44.6167C121.789 44.5697 122.047 44.4836 122.261 44.3527L122.154 44.1769ZM121.463 44.4135L121.431 44.2103C121.192 44.2486 120.907 44.2302 120.57 44.1452L120.519 44.3447L120.469 44.5443C120.843 44.6388 121.187 44.6663 121.496 44.6167L121.463 44.4135ZM120.876 43.5366L120.825 43.7361C121.223 43.8364 121.592 43.8465 121.926 43.7528L121.871 43.5547L121.815 43.3565C121.566 43.4263 121.272 43.4243 120.926 43.337L120.876 43.5366ZM121.871 43.5547L121.925 43.7531C122.252 43.6633 122.527 43.506 122.744 43.2776L122.595 43.1358L122.446 42.994C122.286 43.162 122.079 43.2839 121.816 43.3562L121.871 43.5547ZM122.595 43.1358L122.743 43.2789C122.958 43.0567 123.104 42.799 123.177 42.5076L122.978 42.4572L122.778 42.4069C122.723 42.6252 122.614 42.8199 122.447 42.9927L122.595 43.1358ZM122.978 42.4572L123.177 42.5076L123.394 41.6473L123.195 41.5969L122.995 41.5466L122.778 42.4069L122.978 42.4572ZM123.195 41.5969L123.074 41.4305C123.08 41.4258 123.074 41.4326 123.038 41.4405C123.004 41.4479 122.956 41.4538 122.891 41.4564L122.899 41.6621L122.907 41.8677C122.987 41.8646 123.061 41.8569 123.126 41.8425C123.189 41.8287 123.258 41.8058 123.316 41.7634L123.195 41.5969ZM122.899 41.6621L122.894 41.4563C122.761 41.4597 122.606 41.4545 122.429 41.4399L122.412 41.6451L122.395 41.8502C122.583 41.8657 122.753 41.8717 122.904 41.8678L122.899 41.6621ZM122.412 41.6451L122.431 41.4402C122.253 41.4233 122.081 41.4049 121.912 41.3848L121.888 41.5892L121.864 41.7935C122.035 41.814 122.212 41.8328 122.392 41.85L122.412 41.6451ZM121.888 41.5892L121.915 41.3852C121.748 41.3628 121.611 41.3454 121.505 41.333L121.482 41.5375L121.458 41.7419C121.56 41.7539 121.695 41.771 121.861 41.7932L121.888 41.5892ZM121.482 41.5375L121.506 41.3331C121.241 41.3019 120.986 41.2955 120.741 41.3148L120.757 41.52L120.773 41.7252C120.989 41.7082 121.217 41.7135 121.457 41.7419L121.482 41.5375ZM120.757 41.52L120.743 41.3147C120.486 41.3329 120.255 41.4039 120.056 41.5336L120.168 41.706L120.281 41.8785C120.413 41.7924 120.574 41.7393 120.772 41.7253L120.757 41.52ZM120.168 41.706L120.056 41.5337C119.839 41.6749 119.704 41.898 119.635 42.173L119.834 42.2233L120.034 42.2737C120.085 42.0707 120.173 41.9489 120.281 41.8784L120.168 41.706ZM119.834 42.2233L119.635 42.173C119.538 42.5565 119.606 42.9056 119.855 43.191L120.01 43.0555L120.165 42.9201C120.015 42.749 119.966 42.5433 120.034 42.2737L119.834 42.2233ZM120.01 43.0555L119.857 43.1929C120.093 43.457 120.422 43.6344 120.825 43.7361L120.876 43.5366L120.926 43.337C120.581 43.2499 120.332 43.1066 120.163 42.9182L120.01 43.0555Z" fill="black" mask="url(#path-29-outside-13_263_256)"/>
<mask id="path-31-outside-14_263_256" maskUnits="userSpaceOnUse" x="123.984" y="36.7403" width="6.12221" height="10.4303" fill="black">
<rect fill="white" x="123.984" y="36.7403" width="6.12221" height="10.4303"/>
<path d="M128.833 37.9061L126.066 45.8502L125.151 45.5313L127.917 37.5872L128.833 37.9061Z"/>
</mask>
<path d="M128.833 37.9061L126.066 45.8502L125.151 45.5313L127.917 37.5872L128.833 37.9061Z" fill="black"/>
<path d="M128.833 37.9061L129.027 37.9738L129.095 37.7794L128.901 37.7117L128.833 37.9061ZM126.066 45.8502L125.998 46.0445L126.193 46.1122L126.26 45.9179L126.066 45.8502ZM125.151 45.5313L124.956 45.4636L124.888 45.658L125.083 45.7257L125.151 45.5313ZM127.917 37.5872L127.985 37.3929L127.791 37.3252L127.723 37.5195L127.917 37.5872ZM128.833 37.9061L128.638 37.8384L125.872 45.7825L126.066 45.8502L126.26 45.9179L129.027 37.9738L128.833 37.9061ZM126.066 45.8502L126.134 45.6558L125.218 45.3369L125.151 45.5313L125.083 45.7257L125.998 46.0445L126.066 45.8502ZM125.151 45.5313L125.345 45.599L128.112 37.6549L127.917 37.5872L127.723 37.5195L124.956 45.4636L125.151 45.5313ZM127.917 37.5872L127.85 37.7816L128.765 38.1004L128.833 37.9061L128.901 37.7117L127.985 37.3929L127.917 37.5872Z" fill="black" mask="url(#path-31-outside-14_263_256)"/>
</svg>
